<?xml version="1.0" encoding="UTF-8"?>
<svg width="309px" height="483px" viewBox="0 0 309 483" version="1.1" xmlns="http://www.w3.org/2000/svg" xmlns:xlink="http://www.w3.org/1999/xlink">
    <!-- Generator: Sketch 48.2 (47327) - http://www.bohemiancoding.com/sketch -->
    <title>minivoile</title>
    <desc>Created with Sketch.</desc>
    <defs>
        <linearGradient x1="27.0140843%" y1="60.6864596%" x2="11.469812%" y2="37.9694742%" id="linearGradient-1">
            <stop stop-color="#000000" offset="0%"></stop>
            <stop stop-color="#E4BC57" offset="100%"></stop>
        </linearGradient>
    </defs>
    <g id="Page-1" stroke="none" stroke-width="1" fill="none" fill-rule="evenodd">
        <g id="minivoile">
            <path d="M300.452381,130.543605 L255.547619,316.456395" id="Line-5-Copy" stroke="#000000" stroke-linecap="square"></path>
            <path d="M44.5431034,202.542553 L169.456897,354.457447" id="Line-6-Copy" stroke="#000000" stroke-linecap="square"></path>
            <path d="M242,329.12363 C249.425281,319.538005 253.877322,315.203454 255.356124,316.119978 C256.834925,317.036502 255.766435,322.996509 252.150654,334" id="Path-38-Copy" stroke="#000000" fill="#FFFFFF"></path>
            <path d="M208.347965,352.085862 C195.374351,342.297054 192.130947,332.508245 198.617754,322.719436 C205.104562,312.930628 215.195151,313.836999 228.889522,325.43855 C240.782001,322.538162 248.169754,322.538162 251.05278,325.43855 C252.067306,326.459186 251.937822,328.97859 253.755616,333.052068 C255.57341,337.125545 267.180168,354.002844 269.432067,371.119657 C271.683966,388.236469 266.729231,403.749019 263.485827,407.011955 C261.323558,409.187246 256.098074,410.274891 247.809376,410.274891 C245.184686,419.351196 240.589864,425.151972 234.024911,427.677217 C227.459957,430.202463 219.801921,429.114818 211.050802,424.414281 C212.852692,456.681095 213.753638,473.539598 213.753638,474.989792 C213.753638,477.165083 212.78594,476.744033 205.645129,478.796551 C198.504318,480.84907 194.479703,482.979533 191.049812,481.515665 C187.619922,480.051797 185.672396,475.783458 187.806409,471.183033 C189.229084,468.116084 192.832866,466.122067 198.617754,465.200984 L187.806409,424.414281 C178.627467,431.31749 171.600093,437.29954 166.724285,442.36043 C159.410574,449.951766 156.994074,458.131289 153.750671,459.762757 C150.507267,461.394225 134.216475,452.38439 131.587413,448.886303 C128.95835,445.388215 135.911951,438.553671 137.533653,438.553671 C138.614787,438.553671 141.497813,439.822591 146.182729,442.36043 C158.075209,427.133395 164.922394,416.438215 166.724285,410.274891 C169.427122,401.029905 169.967689,399 173.211093,393.96021 C175.373362,390.60035 184.472911,389.512705 200.50974,390.697274 L205.645129,384.715224 C185.483443,370.497457 174.672097,362.702665 173.211093,361.330848 C171.019585,359.273123 166.724285,354.261153 173.211093,354.261153 C177.535631,354.261153 189.247922,358.067912 208.347965,365.68143 L208.347965,352.085862 Z" id="Path-37-Copy" stroke="#000000" fill="#FFFFFF"></path>
            <path d="M23.6930848,180.842343 C18.1723257,179.919874 9.20668512,162.383321 5.43424973,154.657097 C-1.30230266,140.860144 0.126823384,131.936487 0.126823384,124.406397 C0.126823384,116.876308 2.7941644,109.991105 11.6113804,98.9932772 C20.4285964,87.995449 77.4809518,38.3429145 109.453116,21.8278622 C141.42528,5.31280985 187.712257,-0.904541282 200.741097,0.104684329 C213.769937,1.11390994 222.688122,1.67314258 240.051236,7.82780504 C257.41435,13.9824675 263.585643,21.2138002 276.075826,30.8103425 C288.56601,40.4068848 303.784953,63.1297686 306.560078,69.6444254 C309.335203,76.1590822 310.258799,84.163371 306.560078,93.1712992 C305.899034,94.7812158 298.446668,101.977793 284.202978,114.761031 C273.505119,109.650352 267.367633,106.664468 265.79052,105.803378 C263.42485,104.511743 256.810657,99.63438 240.051236,93.1712992 C223.291815,86.7082184 222.084687,86.4049601 204.366104,82.1157478 C186.64752,77.8265355 179.572717,77.5245782 167.469332,75.601091 C159.400408,74.3187662 139.610299,74.3187662 108.099004,75.601091 C110.14398,67.730232 112.807604,61.1228869 116.089877,55.7790558 C121.013285,47.7633092 127.233738,37.9084385 141.42528,27.7516317 C155.616823,17.5948249 162.542394,16.4892032 174.900224,13.9824675 C183.138777,12.3113103 191.752402,11.2089827 200.741097,10.6754847 C181.559698,10.4909358 162.281665,14.208395 142.906999,21.8278622 C113.844999,33.2570629 89.1519625,73.9593925 85.1546676,82.1157478 C81.1573728,90.2721031 61.8301439,149.033724 58.9328347,155.630323 C56.0355255,162.226922 52.9303882,173.157084 48.1371033,175.050779 C40.0417606,178.249025 29.395443,181.795156 23.6930848,180.842343 Z" id="Path-Copy" fill="url(#linearGradient-1)"></path>
        </g>
    </g>
</svg>