<?xml version="1.0" encoding="UTF-8"?>
<svg width="41px" height="36px" viewBox="0 0 41 36" version="1.1" xmlns="http://www.w3.org/2000/svg" xmlns:xlink="http://www.w3.org/1999/xlink">
    <!-- Generator: Sketch 48.2 (47327) - http://www.bohemiancoding.com/sketch -->
    <title>group-auvergnat monochrome</title>
    <desc>Created with Sketch.</desc>
    <defs>
        <path d="M20.5194805,27.2727273 C21.9090203,28.0594768 23.3197274,28.4528515 24.7516018,28.4528515 C26.1834763,28.4528515 27.5653935,28.0952381 28.8973533,27.3800113 L28.9837231,28.3455675 C27.4403032,29.2753623 25.9720162,29.7402597 24.5788622,29.7402597 C23.1857082,29.7402597 21.832581,29.2753623 20.5194805,28.3455675 L20.5194805,27.2727273 Z" id="path-1"></path>
    </defs>
    <g id="Page-1" stroke="none" stroke-width="1" fill="none" fill-rule="evenodd">
        <g id="group-auvergnat-monochrome" transform="translate(1.000000, 0.000000)">
            <path d="M24.4155844,23.1168831 C24.1858022,22.4046237 23.5797416,22.1015934 22.5974026,22.2077922 C21.123894,22.3670904 20.3976674,23.4301718 19.6103896,23.6363636 C18.8231118,23.8425554 17.5164015,23.5616548 17.1428571,23.6363636 C16.7693127,23.7110725 16.7532468,23.8961039 17.6623377,24.025974 C18.5714286,24.1558442 23.5064935,24.2857143 24.025974,24.025974 C24.3722944,23.8528139 24.5021645,23.5497835 24.4155844,23.1168831 Z" id="Path-17" stroke="#000000" fill="#000000"></path>
            <path d="M32.4675325,23.1168831 C32.2377503,22.4046237 31.6316897,22.1015934 30.6493506,22.2077922 C29.1758421,22.3670904 28.4496154,23.4301718 27.6623377,23.6363636 C26.8750599,23.8425554 25.5683496,23.5616548 25.1948052,23.6363636 C24.8212608,23.7110725 24.8051948,23.8961039 25.7142857,24.025974 C26.6233766,24.1558442 31.5584416,24.2857143 32.0779221,24.025974 C32.4242424,23.8528139 32.5541126,23.5497835 32.4675325,23.1168831 Z" id="Path-17-Copy" stroke="#000000" fill="#000000" transform="translate(28.723983, 23.181529) scale(-1, 1) translate(-28.723983, -23.181529) "></path>
            <g id="Rectangle-4">
                <use fill="#000000" fill-rule="evenodd" xlink:href="#path-1"></use>
                <path stroke="#000000" stroke-width="1" d="M21.0194805,28.0824941 L21.0194805,28.0933884 C20.9616463,28.0663584 20.9038603,28.038695 20.8461228,28.0103968 L20.8084234,27.9375086 C20.8787042,27.9872738 20.9490559,28.0356015 21.0194805,28.0824938 Z M21.0748836,28.1190779 C22.2207727,28.8694154 23.3860588,29.2402597 24.5788622,29.2402597 C25.6086099,29.2402597 26.6927342,28.9638585 27.8325125,28.4056378 C26.8324488,28.7700619 25.8047344,28.9528515 24.7516018,28.9528515 C23.5075639,28.9528515 22.2807966,28.6739017 21.0748836,28.1190779 Z M28.457476,28.0744599 C28.5465582,28.0237352 28.63597,27.9713427 28.725712,27.9172799 L28.6513696,28.0637451 C28.5890933,28.0931066 28.5267039,28.1217428 28.4642021,28.1496535 L28.457476,28.0744599 Z"></path>
            </g>
            <path d="M24.5454545,29.7402597 C23.3159432,30.0012335 22.5800124,30.2609738 22.3376623,30.5194805 C22.0953123,30.7779873 21.835572,31.5572081 21.5584416,32.8571429 C23.0460656,32.7768374 23.9551565,32.5603872 24.2857143,32.2077922 C24.6162721,31.8551972 24.7028522,31.0326864 24.5454545,29.7402597 Z" id="Path-18" stroke="#000000" fill="#000000"></path>
            <path d="M24.6753247,29.8701299 C24.7101004,31.4253094 24.8832605,32.4209803 25.1948052,32.8571429 C25.5063498,33.2933054 26.5453109,33.7694958 28.3116883,34.2857143 C29.0837493,32.8038292 29.2569095,31.7648681 28.8311688,31.1688312 C28.4054281,30.5727942 27.0201468,30.1398938 24.6753247,29.8701299 Z" id="Path-19" stroke="#000000" fill="#000000"></path>
            <path d="M20.6720348,28.3116883 C20.6720348,29.1868492 20.4421358,29.8233298 19.9823378,30.2211302 C19.5225398,30.6189306 18.1431458,31.4543115 15.8441558,32.7272727" id="Path-20" stroke="#000000"></path>
            <path d="M33.685708,28.3116883 C33.685708,29.048789 33.455776,29.7039897 32.9959121,30.2772903 C32.5360481,30.8505909 31.1564563,31.7105417 28.8571365,32.8571429" id="Path-20-Copy" stroke="#000000" transform="translate(31.271422, 30.584416) scale(-1, 1) translate(-31.271422, -30.584416) "></path>
            <path d="M31.6883117,19.2207792 L40,19.2207792 L40,21.038961 L10.3896104,21.038961 L10.3896104,19.2207792 L17.9220779,19.2207792 L17.9220779,0 L31.6883117,0 L31.6883117,19.2207792 Z" id="Combined-Shape" fill="#000000"></path>
            <g id="Auvergnat" transform="translate(0.000000, 14.285714)" stroke="#000000">
                <path d="M7.14285714,7.01298701 C7.1875855,6.55653409 7.34817747,6.26436244 7.63722908,5.97402597 C7.97251376,5.63725093 7.92219288,5.20704376 8.31168831,4.93506494 C8.70118374,4.66308611 8.98305051,4.72776875 9.35119025,4.59327498 C9.71933,4.4587812 10.1298701,4.59327498 9.92251065,3.99485827 C9.71515116,3.39644157 8.45260053,3.9805566 7.63722908,4.19433051 C7.33717974,4.27299738 6.86107941,4.6054511 6.20892811,5.19169168 C4.82541621,1.61879905 3.96843562,-0.109960315 3.63798635,0.00541357335 C2.49534557,0.404358043 3.43168902,2.27852373 3.63798635,3.19696933 C3.7040981,3.49130202 3.89453823,4.02322798 4.20930674,4.79274721 C3.70265181,3.92308121 3.29522056,3.45103994 2.98701299,3.37662338 C2.61915025,3.28780311 1.91369897,3.85752856 1.63836498,3.99485827 C0.706325144,4.45973646 1.06704459,4.59327498 0.210064004,6.78746956 C-0.646916582,8.98166415 1.31899767,8.75865474 2.49534557,9.58008085 C3.31861903,10.1549604 3.44434954,9.36641759 4.20930674,9.58008085 C4.90075125,9.77321099 6.81776817,14.0106124 8.57142857,16.7532468 C10.325089,19.4958811 12.1310947,21.0986448 12.2077922,20.750526" id="Path-21"></path>
                <path d="M15.8441558,18.4415584 C12.2077922,14.1991342 9.91341991,11.3852814 8.96103896,10 C8.00865801,8.61471861 7.4025974,7.57575758 7.14285714,6.88311688" id="Path-22"></path>
                <path d="M1.55844156,4.15584416 L3.76623377,7.14285714" id="Path-23"></path>
                <path d="M0.649350649,5.71428571 L3.11688312,7.79220779" id="Path-24"></path>
                <path d="M0,7.27272727 L2.16570172,8.31168831 C2.48132406,8.26054479 2.68758136,8.17396471 2.78447364,8.05194805 C2.88136593,7.9299314 2.88136593,7.75677122 2.78447364,7.53246753" id="Path-25"></path>
                <path d="M2.85714286,8.05194805 C3.21596546,7.86484865 3.44892939,7.69168847 3.55603468,7.53246753 C3.66313996,7.37324659 3.66313996,7.20008642 3.55603468,7.01298701" id="Path-26"></path>
                <path d="M4.15584416,4.80519481 C4.540466,5.69294431 4.80020626,6.25571488 4.93506494,6.49350649 C5.1034151,6.7903525 4.67051467,7.0253556 3.63636364,7.19851577" id="Path-27"></path>
            </g>
        </g>
    </g>
</svg>