<?xml version="1.0" encoding="UTF-8"?>
<svg width="41px" height="51px" viewBox="0 0 41 51" version="1.1" xmlns="http://www.w3.org/2000/svg" xmlns:xlink="http://www.w3.org/1999/xlink">
    <!-- Generator: Sketch 48.2 (47327) - http://www.bohemiancoding.com/sketch -->
    <title>icon-meteo monochrome copy</title>
    <desc>Created with Sketch.</desc>
    <defs>
        <linearGradient x1="168.706916%" y1="17.4405924%" x2="37.890625%" y2="55.3352865%" id="linearGradient-1">
            <stop stop-color="#FFFFFF" offset="0%"></stop>
            <stop stop-color="#807F7F" offset="100%"></stop>
        </linearGradient>
    </defs>
    <g id="Page-1" stroke="none" stroke-width="1" fill="none" fill-rule="evenodd">
        <g id="icon-meteo-monochrome-copy" transform="translate(1.000000, 0.000000)">
            <g id="Vent" transform="translate(0.000000, 17.254902)">
                <ellipse id="Oval" stroke="#000000" fill="url(#linearGradient-1)" cx="1.83006536" cy="6.92810458" rx="1.83006536" ry="6.92810458"></ellipse>
                <path d="M2.48366013,13.9745628 L2.48366013,31.2541954" id="Line-3" stroke="#000000" stroke-width="3" stroke-linecap="square"></path>
                <path d="M1.93871488,0.119825708 L18.453442,5.63180828" id="Line" stroke="#000000" stroke-linecap="round"></path>
                <path d="M2.20158239,13.9978214 L18.7134503,8.48583878" id="Line-2" stroke="#000000" stroke-linecap="round"></path>
                <path d="M7.32026144,2.09150327 C7.7980163,3.75498866 8.04583765,5.44534756 8.06372549,7.16257998 C8.08161333,8.87981239 7.86919503,10.5881463 7.42647059,12.2875817 L9.86928105,11.4945534 C10.4357298,10.0123747 10.7189542,8.55827727 10.7189542,7.13226114 C10.7189542,5.70624501 10.4357298,4.29033516 9.86928105,2.88453159 L7.32026144,2.09150327 Z" id="Path-14" fill="#000000"></path>
                <path d="M13.7012338,4.18300654 L16.043409,4.99245852 C16.3440812,5.84512136 16.4860312,6.61758318 16.469259,7.309844 C16.4524868,8.00210481 16.2750493,8.69436563 15.9369464,9.38662645 L13.5947712,10.1960784 C14.0023234,9.30539825 14.2152484,8.34332011 14.2335463,7.309844 C14.2518442,6.27636789 14.0744067,5.23408873 13.7012338,4.18300654 Z" id="Path-13" fill="#000000"></path>
            </g>
            <g id="Meteo" transform="translate(13.333333, 0.000000)" stroke="#000000">
                <circle id="Oval-2" cx="14.9019608" cy="15.1633987" r="6.2745098"></circle>
                <path d="M8.86186652,21.4379085 C8.54931247,20.368102 8.54931247,19.4979933 8.86186652,18.8275824 C9.17442057,18.1571714 9.93844158,18.010519 11.1539296,18.3876252 C10.0426263,17.4239094 10.0426263,16.2297399 11.1539296,14.8051167 C12.8208845,12.6681818 15.4255016,15.496478 15.6859633,16.1249882 C15.946425,16.7534985 17.0924565,12.8567349 18.9677808,11.4740123 C20.4396346,10.3887784 21.6163487,10.1279133 23.1872605,10.9083531 C24.7581723,11.6887929 24.9063078,12.2910756 25.4793236,14.8051167 C25.8613341,16.4811441 25.470353,18.6920747 24.3063803,21.4379085 L8.86186652,21.4379085 Z" id="Path-15" fill="#FFFFFF"></path>
                <path d="M7.42346238,13.7841517 C7.38045655,13.764826 7.34313725,13.7101097 7.34313725,13.4647308 C7.34313725,13.1815026 7.39285734,13.1522921 7.4436529,13.1383233 C7.29238535,13.1799219 7.04714201,13.2197739 6.72576089,13.251912 C5.33520292,13.3909678 2.52196664,13.3909819 1.1312672,13.251912 C0.808296202,13.2196149 0.560252909,13.1797602 0.405395669,13.1380934 C0.449654288,13.1500019 0.488004383,13.1716757 0.499593127,13.4448947 C0.512259637,13.7435233 0.455940891,13.7768167 0.397137592,13.7928855 C0.550452485,13.7509902 0.800879351,13.7105883 1.1312672,13.6775495 C2.54594265,13.536082 5.32300417,13.5372739 6.72576089,13.6775495 C7.03946422,13.7089199 7.28062417,13.74764 7.43265089,13.78816 Z" id="Rectangle-Copy-4" transform="translate(3.921569, 13.464052) rotate(-168.000000) translate(-3.921569, -13.464052) "></path>
                <path d="M10.2992794,7.77107978 C10.2562735,7.75175412 10.2189542,7.69703777 10.2189542,7.45165888 C10.2189542,7.16843072 10.2686743,7.13922018 10.3194699,7.1252514 C10.1682023,7.16684997 9.92295901,7.20670201 9.60157788,7.23884012 C8.21101992,7.37789589 5.39778363,7.37791004 4.0070842,7.23884012 C3.6841132,7.20654302 3.4360699,7.16668832 3.28121266,7.12502146 C3.32547128,7.13692996 3.36382138,7.15860385 3.37541012,7.43182277 C3.38807663,7.73045136 3.33175788,7.76374485 3.27295459,7.77981365 C3.42626948,7.73791827 3.67669634,7.69751642 4.0070842,7.66447764 C5.42175964,7.52301012 8.19882116,7.52420199 9.60157788,7.66447764 C9.91528121,7.69584797 10.1564412,7.73456806 10.3084679,7.77508806 Z" id="Rectangle-Copy-3" transform="translate(6.797386, 7.450980) rotate(-131.000000) translate(-6.797386, -7.450980) "></path>
                <path d="M16.3215398,4.37639525 C16.3252606,4.37738697 16.328928,4.37837976 16.3325418,4.37937355 C16.3257537,4.37750683 16.3189848,4.37536791 16.3123513,4.37238697 Z M16.3123513,4.37238697 C16.2693454,4.35306131 16.2320261,4.29834496 16.2320261,4.05296607 C16.2320261,3.76973791 16.2817462,3.74052737 16.3325418,3.72655859 C16.1812742,3.76815716 15.9360309,3.8080092 15.6146498,3.84014731 C14.2240918,3.97920308 11.4108555,3.97921723 10.0201561,3.84014731 C9.69718509,3.80785021 9.4491418,3.76799551 9.29428456,3.72632865 C9.33854318,3.73823715 9.37689327,3.75991104 9.38848202,4.03312996 C9.40114853,4.33175855 9.34482978,4.36505204 9.28602648,4.38112084 C9.43934137,4.33922546 9.68976824,4.29882361 10.0201561,4.26578483 C11.4348315,4.12431731 14.2118931,4.12550918 15.6146498,4.26578483 C15.9283531,4.29715516 16.1695131,4.33587525 16.3215398,4.37639525 Z" id="Rectangle-Copy-2" transform="translate(12.810458, 4.052288) rotate(-99.000000) translate(-12.810458, -4.052288) "></path>
                <path d="M22.3346117,5.16070898 C22.3383325,5.16170069 22.3419999,5.16269348 22.3456137,5.16368727 C22.3388256,5.16182055 22.3320567,5.15968164 22.3254232,5.15670069 Z M22.3254232,5.15670069 C22.2824173,5.13737504 22.245098,5.08265869 22.245098,4.83727979 C22.245098,4.55405164 22.2948181,4.52484109 22.3456137,4.51087231 C22.1943461,4.55247089 21.9491028,4.59232292 21.6277217,4.62446103 C20.2371637,4.76351681 17.4239274,4.76353096 16.033228,4.62446103 C15.710257,4.59216393 15.4622137,4.55230924 15.3073565,4.51064237 C15.3516151,4.52255087 15.3899652,4.54422476 15.4015539,4.81744369 C15.4142204,5.11607227 15.3579017,5.14936576 15.2990984,5.16543456 C15.4524133,5.12353919 15.7028401,5.08313734 16.033228,5.05009856 C17.4479034,4.90863103 20.224965,4.9098229 21.6277217,5.05009856 C21.941425,5.08146889 22.182585,5.12018897 22.3346117,5.16070898 Z" id="Rectangle-Copy" transform="translate(18.823529, 4.836601) rotate(-62.000000) translate(-18.823529, -4.836601) "></path>
                <path d="M26.5176182,7.51365015 C26.521339,7.51464187 26.5250064,7.51563466 26.5286202,7.51662845 C26.5218321,7.51476173 26.5150633,7.51262282 26.5084297,7.50964187 Z M26.5084297,7.50964187 C26.4654239,7.49031622 26.4281046,7.43559987 26.4281046,7.19022097 C26.4281046,6.90699282 26.4778247,6.87778227 26.5286202,6.86381349 C26.3773527,6.90541206 26.1321093,6.9452641 25.8107282,6.97740221 C24.4201702,7.11645799 21.606934,7.11647213 20.2162345,6.97740221 C19.8932635,6.94510511 19.6452202,6.90525041 19.490363,6.86358355 C19.5346216,6.87549205 19.5729717,6.89716594 19.5845604,7.17038487 C19.597227,7.46901345 19.5409082,7.50230694 19.4821049,7.51837574 C19.6354198,7.47648036 19.8858467,7.43607852 20.2162345,7.40303973 C21.63091,7.26157221 24.4079715,7.26276408 25.8107282,7.40303973 C26.1244315,7.43441006 26.3655915,7.47313015 26.5176182,7.51365015 Z" id="Rectangle" transform="translate(23.006536, 7.189542) rotate(-36.000000) translate(-23.006536, -7.189542) "></path>
            </g>
        </g>
    </g>
</svg>