<?xml version="1.0" encoding="UTF-8"?>
<svg width="41px" height="36px" viewBox="0 0 41 36" version="1.1" xmlns="http://www.w3.org/2000/svg" xmlns:xlink="http://www.w3.org/1999/xlink">
    <!-- Generator: Sketch 48.2 (47327) - http://www.bohemiancoding.com/sketch -->
    <title>Lieu Copy 3</title>
    <desc>Created with Sketch.</desc>
    <defs></defs>
    <g id="Page-1" stroke="none" stroke-width="1" fill="none" fill-rule="evenodd">
        <g id="Lieu-Copy-3" transform="translate(0.000000, 1.000000)" stroke="#000000">
            <polyline id="Path-42" points="26.6112266 14.3035343 24.0748441 15.3430353 16.6735967 27.6923077 26.1954262 27.1517672 35.0519751 33.6798337 40 17.7962578 34.2203742 14.6777547"></polyline>
            <polygon id="Path-43" points="24.0748441 15.3430353 18.3783784 11.9334719 11.975052 13.5966736 0 23.8253638 11.1850312 23.4095634 16.6320166 27.6923077"></polygon>
            <path d="M12,18 C12,18 12.234311,18.4562704 12.8731809,18.997921 C13.0489824,19.1469701 13.3954828,19.3548703 13.9126819,19.6216216" id="Path-45"></path>
            <path d="M16,19 C16,19 16.234311,19.4562704 16.8731809,19.997921 C17.0489824,20.1469701 17.3954828,20.3548703 17.9126819,20.6216216" id="Path-45-Copy" transform="translate(16.956341, 19.810811) rotate(-52.000000) translate(-16.956341, -19.810811) "></path>
            <path d="M25,19 C25,19 25.234311,19.4562704 25.8731809,19.997921 C26.0489824,20.1469701 26.3954828,20.3548703 26.9126819,20.6216216" id="Path-45-Copy-2" transform="translate(25.956341, 19.810811) rotate(132.000000) translate(-25.956341, -19.810811) "></path>
            <path d="M29.5634096,20 C29.9461983,20.0415758 30.3481387,20.1385959 30.7692308,20.2910603 C31.1903228,20.4435247 31.5922632,20.6375649 31.975052,20.8731809" id="Path-49"></path>
            <path d="M33.5550936,21.8295218 C33.945788,22.1809897 34.2784284,22.51363 34.5530146,22.8274428 C34.8276007,23.1412556 35.077081,23.473896 35.3014553,23.8253638" id="Path-50"></path>
            <path d="M36.1330561,25.4469854 C36.3237868,25.7919766 36.490107,26.1454069 36.6320166,26.5072765 C36.7739263,26.8691461 36.8848064,27.2225765 36.964657,27.5675676" id="Path-51"></path>
            <circle id="Oval-12" fill="#000000" cx="30.6029106" cy="5.32224532" r="1.82952183"></circle>
            <path d="M30.7692308,15.2182952 C29.1891892,12.5571726 25.1143451,9.77130977 24.7401247,5.53014553 C24.7401247,2.23830561 27.8752091,0.0415800416 30.7692308,0.0415800416 C33.6632524,0.0415800416 36.5072765,2.53638254 36.5072765,5.53014553 C36.0914761,9.52182952 32.9313929,11.6008316 30.7692308,15.2182952 Z" id="Path-52"></path>
        </g>
    </g>
</svg>