<?xml version="1.0" encoding="UTF-8"?>
<svg width="101px" height="112px" viewBox="0 0 101 112" version="1.1" xmlns="http://www.w3.org/2000/svg" xmlns:xlink="http://www.w3.org/1999/xlink">
    <!-- Generator: Sketch 48.2 (47327) - http://www.bohemiancoding.com/sketch -->
    <title>para blanc</title>
    <desc>Created with Sketch.</desc>
    <defs></defs>
    <g id="Page-1" stroke="none" stroke-width="1" fill="none" fill-rule="evenodd">
        <g id="Stages-section" transform="translate(-692.000000, -1300.000000)">
            <g id="Je-veux-m'inscrire-stage" transform="translate(47.000000, 1217.000000)">
                <g id="para-blanc" transform="translate(707.356765, 133.848072) scale(-1, 1) rotate(39.000000) translate(-707.356765, -133.848072) translate(654.856765, 77.348072)">
                    <path d="M100.159221,38.9553895 L90.4481805,81.4111184" id="Line-5" stroke="#000000" stroke-linecap="square"></path>
                    <path d="M14.3407228,65.6031343 L72.3811282,90.8959089" id="Line-6" stroke="#000000" stroke-linecap="square"></path>
                    <path d="M80.5113018,90.2184239 C77.8012439,88.1859688 77.1237295,86.1535137 78.4787584,84.1210586 C79.8337873,82.0886034 81.9416101,82.2767937 84.8022267,84.6856294 C87.2864464,84.0834205 88.8296738,84.0834205 89.4319088,84.6856294 C89.6438331,84.8975445 89.6167854,85.4206497 89.9965042,86.2664278 C90.3762231,87.112206 92.8007584,90.6164478 93.2711574,94.1704199 C93.7415565,97.724392 92.7065621,100.94527 92.0290476,101.622755 C91.5773713,102.074412 90.4858202,102.30024 88.7543944,102.30024 L76.2203768,105.236009 C74.3029881,106.669325 72.8350401,107.911381 71.8165329,108.962177 C70.288772,110.538369 69.7839895,112.236688 69.106475,112.57543 C68.4289605,112.914173 65.0259776,111.043456 64.4767929,110.317147 C63.9276081,109.590837 65.3801455,108.171777 65.7189027,108.171777 C65.9447409,108.171777 66.5469759,108.435244 67.5256079,108.962177 C70.2406991,106.995825 71.7864432,105.372802 72.1628401,104.093108 C72.7274355,102.173567 73.6351692,101.325311 74.3126837,100.278897 C74.76436,99.5812879 76.2847905,98.9000989 78.8739752,98.2353301 L79.9467064,96.9932742 C75.7351326,94.0412322 73.476751,92.4227957 73.1715618,92.1379648 C72.7137779,91.7107184 71.8165329,90.6700806 73.1715618,90.6700806 C74.0749144,90.6700806 76.5214944,91.4604798 80.5113018,93.0412782 L80.5113018,90.2184239 Z" id="Path-37" stroke="#000000" fill="#FFFFFF"></path>
                    <path d="M87.6252036,84.2339727 C89.1946257,82.2363439 90.135618,81.3330305 90.4481805,81.5240326 C90.760743,81.7150347 90.5349049,82.9570906 89.7706661,85.2502003" id="Path-38" stroke="#000000" fill="#FFFFFF"></path>
                    <g id="Thangka-Copy-3"></g>
                    <path d="M8.01754553,61.1461748 C6.14936593,60.8342707 3.11546672,54.9048346 1.83890553,52.2924539 C-0.440688538,47.6274464 0.0429159928,44.610191 0.0429159928,42.0641272 C0.0429159928,39.5180633 0.945522311,37.1900476 3.92919587,33.4714765 C6.91286943,29.7529053 26.2189185,12.9644557 37.0380366,7.380408 C47.8571547,1.79636027 63.5202879,-0.305842306 67.9291404,0.0353957275 C72.3379929,0.376633761 75.3558338,0.565720765 81.2313692,2.64672713 C87.1069045,4.72773349 89.1952193,7.17278218 93.4217949,10.4175524 C97.6483704,13.6623226 102.798336,21.3453542 103.737415,23.5480814 C104.676495,25.7508085 104.989032,28.4572081 103.737415,31.5029569 C103.513724,32.0472998 100.991904,34.480597 96.1719562,38.8028485 C92.5518886,37.0748326 90.4750137,36.0652493 89.9413315,35.7740987 C89.1408081,35.3373727 86.9026197,33.6882453 81.2313692,31.5029569 C75.5601186,29.3176686 75.1516363,29.2151313 69.155813,27.7648685 C63.1599897,26.3146056 60.7659342,26.2125082 56.670248,25.5621413 C53.9397905,25.1285633 47.2429799,25.1285633 36.5798161,25.5621413 C37.2718193,22.9008568 38.1731679,20.66679 39.2838619,18.8599409 C40.9499029,16.1496672 43.054853,12.8175513 47.8571547,9.38334514 C52.6594563,5.949139 55.0030128,5.57530767 59.1848011,4.72773349 C61.9726599,4.16268403 64.8874397,3.78996647 67.9291404,3.60958082 C61.4383124,3.54718141 54.9147842,4.8041238 48.358556,7.380408 C38.5242137,11.2448343 30.1682927,25.0070523 28.815641,27.7648685 C27.4629892,30.5226846 20.9228135,50.3910865 19.9423878,52.6215199 C18.9619622,54.8519532 17.9112092,58.5476451 16.2892009,59.1879386 C13.5498033,60.2693255 9.94717675,61.4683386 8.01754553,61.1461748 Z" id="Path" stroke="#000000" fill="#FFFFFF"></path>
                </g>
            </g>
        </g>
    </g>
</svg>