<?xml version="1.0" encoding="UTF-8"?>
<svg width="488px" height="548px" viewBox="0 0 488 548" version="1.1" xmlns="http://www.w3.org/2000/svg" xmlns:xlink="http://www.w3.org/1999/xlink">
    <!-- Generator: Sketch 48.2 (47327) - http://www.bohemiancoding.com/sketch -->
    <title>voile copy</title>
    <desc>Created with Sketch.</desc>
    <defs>
        <linearGradient x1="27.0140843%" y1="60.6864596%" x2="11.469812%" y2="37.9694742%" id="linearGradient-1">
            <stop stop-color="#D93434" offset="0%"></stop>
            <stop stop-color="#FFFFFF" offset="100%"></stop>
        </linearGradient>
    </defs>
    <g id="Page-1" stroke="none" stroke-width="1" fill="none" fill-rule="evenodd">
        <g id="voile-copy">
            <path d="M467.477273,181.526455 L422.522727,379.473545" id="Line-5" stroke="#000000" stroke-linecap="square"></path>
            <path d="M66.5271318,306.526549 L337.472868,424.473451" id="Line-6" stroke="#000000" stroke-linecap="square"></path>
            <path d="M375.678585,420.998939 C362.984976,411.504974 359.811574,402.011009 366.158378,392.517044 C372.505183,383.023079 382.377989,383.90215 395.776798,395.154256 C407.412606,392.34123 414.640911,392.34123 417.461712,395.154256 C418.454342,396.14415 418.327654,398.587669 420.106214,402.538451 C421.884775,406.489234 433.241028,422.85818 435.444324,439.459426 C437.647621,456.060672 432.799823,471.105976 429.626421,474.270631 C427.510819,476.380401 422.398116,477.435286 414.28831,477.435286 C411.720268,486.238208 407.224615,491.864262 400.801351,494.313446 C394.378087,496.76263 386.885332,495.707745 378.323086,491.148791 C380.086088,522.443712 380.967588,538.79443 380.967588,540.200943 C380.967588,542.310713 380.020775,541.902345 373.034083,543.893041 C366.04739,545.883736 362.109637,547.950029 358.753773,546.530253 C355.397909,545.110477 353.492416,540.970703 355.580371,536.508846 C356.972342,533.534274 360.498344,531.600318 366.158378,530.706978 L355.580371,491.148791 C346.599536,497.844072 339.723832,503.645939 334.953258,508.554393 C327.797396,515.917074 325.433051,523.850226 322.259649,525.432553 C319.086247,527.014881 303.147055,518.276427 300.574735,514.883703 C298.002414,511.49098 304.805937,504.862296 306.392638,504.862296 C307.450439,504.862296 310.271241,506.092995 314.855044,508.554393 C326.490852,493.786003 333.190256,483.412968 334.953258,477.435286 C337.597759,468.468763 338.12666,466.5 341.300062,461.612011 C343.415663,458.353352 352.318819,457.298467 368.00953,458.447356 L373.034083,452.645488 C353.307541,438.855967 342.729534,431.295958 341.300062,429.965461 C339.155853,427.969716 334.953258,423.108709 341.300062,423.108709 C345.531265,423.108709 356.990772,426.800806 375.678585,434.185001 L375.678585,420.998939 Z" id="Path-37" stroke="#000000" fill="#FFFFFF"></path>
            <path d="M409,393.12363 C416.425281,383.538005 420.877322,379.203454 422.356124,380.119978 C423.834925,381.036502 422.766435,386.996509 419.150654,398" id="Path-38" stroke="#000000" fill="#FFFFFF"></path>
            <path d="M37.4182051,285.750885 C28.6993363,284.293281 14.5400076,256.583591 8.58224552,244.375303 C-2.056711,222.574593 0.200290652,208.474228 0.200290652,196.575854 C0.200290652,184.677481 4.41279038,173.7981 18.337714,156.420316 C32.2626376,139.042533 122.364739,60.5860417 172.857996,34.4904341 C223.351252,8.39482662 296.45172,-1.42927517 317.028011,0.165412807 C337.604301,1.76010079 351.688685,2.64375016 379.110043,12.3687969 C406.531401,22.0938437 416.27765,33.5201484 436.003247,48.6837456 C455.728844,63.8473428 479.763938,99.75201 484.14666,110.045888 C488.529381,120.339765 489.988006,132.987426 484.14666,147.220948 C483.102682,149.764794 471.333248,161.136181 448.83836,181.33511 C431.94336,173.259672 422.250501,168.541645 419.759785,167.181028 C416.023711,165.140102 405.577996,157.43333 379.110043,147.220948 C352.64209,137.008566 350.735687,136.529385 322.752941,129.751955 C294.770194,122.974526 283.597041,122.4974 264.48231,119.458077 C251.739156,117.431863 220.484874,117.431863 170.719462,119.458077 C173.949069,107.021251 178.155699,96.5809153 183.339352,88.1370717 C191.114832,75.4713063 200.938718,59.8995216 223.351252,43.8506445 C245.763785,27.8017674 256.701257,26.0547631 276.21783,22.0938437 C289.228878,19.4532307 302.832272,17.7114313 317.028011,16.8684454 C286.735057,16.5768379 256.289491,22.4508341 225.691312,34.4904341 C179.794044,52.5498342 140.796627,116.864012 134.483747,129.751955 C128.170867,142.639898 97.6476059,235.489752 93.0719202,245.913108 C88.4962345,256.336463 83.5923284,273.607326 76.0223509,276.599573 C63.2374731,281.653155 46.4238711,287.256434 37.4182051,285.750885 Z" id="Path" fill="url(#linearGradient-1)"></path>
            <path d="M294.067114,37.0062665 L283.463087,57.9878185 L259.604027,51.1688141 C257.086007,53.8650835 254.965202,56.6626238 253.241611,59.5614349 C251.51802,62.460246 250.10415,65.6074788 249,69.0031333 L276.57047,75.8221376 L265.436242,96.2791508 C268.500239,96.7698055 271.422463,97.3792036 274.202915,98.1073451 C276.983366,98.8354865 280.070091,99.7997048 283.463087,101 L294.067114,80.5429868 L319.516779,87.88653 C321.590568,86.2427238 323.357906,83.794876 324.818792,80.5429868 C326.279678,77.2910977 327.340081,73.4444798 328,69.0031333 L303.080537,62.7086677 L313.684564,41.7271157 C310.471087,40.0370457 307.289879,38.8131218 304.14094,38.0553441 C300.992001,37.2975664 297.634059,36.9478739 294.067114,37.0062665 Z" id="Path-28" fill="#FFFFFF" transform="translate(288.500000, 69.000000) rotate(-6.000000) translate(-288.500000, -69.000000) "></path>
        </g>
    </g>
</svg>