<?xml version="1.0" encoding="UTF-8"?>
<svg width="82px" height="73px" viewBox="0 0 82 73" version="1.1" xmlns="http://www.w3.org/2000/svg" xmlns:xlink="http://www.w3.org/1999/xlink">
    <!-- Generator: Sketch 48.2 (47327) - http://www.bohemiancoding.com/sketch -->
    <title>Soaring</title>
    <desc>Created with Sketch.</desc>
    <defs></defs>
    <g id="Page-1" stroke="none" stroke-width="1" fill="none" fill-rule="evenodd">
        <g id="Soaring" transform="translate(1.000000, 1.000000)">
            <path d="M39.6671234,46.1927711 C36.6701429,46.400708 32.3410759,51.4750055 37.1583761,52.0970984 C43.7349979,52.9463853 45.1096029,47.0672943 39.4763928,46.1927711" id="Path" stroke="#000000"></path>
            <path d="M47,47.9036145 C55.9722445,38.5915049 66.8588561,31.3036988 76,22.2409639" id="Path-2" stroke="#000000"></path>
            <path d="M37.7589323,67.2107175 C37.5976504,66.7219737 38.0980819,65.6559208 37.7589323,65.1948125 C37.443782,64.7663339 36.0685662,65.2090424 35.0781174,65.3335846 C33.6196435,65.6919182 33.9941599,66.1595103 34.2017943,66.8803888 C34.3991181,67.56547 34.7976824,69.2242681 35.4945135,69.7348859 C36.8426015,70.7227261 38.6597383,69.9404938 37.7589323,67.2107175 Z" id="Path-5" stroke="#000000"></path>
            <path d="M42.7589323,67.2107175 C42.5976504,66.7219737 43.0980819,65.6559208 42.7589323,65.1948125 C42.443782,64.7663339 41.0685662,65.2090424 40.0781174,65.3335846 C38.6196435,65.6919182 38.9941599,66.1595103 39.2017943,66.8803888 C39.3991181,67.56547 39.7976824,69.2242681 40.4945135,69.7348859 C41.8426015,70.7227261 43.6597383,69.9404938 42.7589323,67.2107175 Z" id="Path-5" stroke="#000000" transform="translate(41.000000, 67.578313) scale(-1, 1) translate(-41.000000, -67.578313) "></path>
            <path d="M29,47.9036145 C20.6475892,38.9903453 6.8512604,31.5872914 3,20.5301205" id="Path-3" stroke="#000000"></path>
            <path d="M2.12273166,19.7447718 C16.4007413,7.95337027 21.6422717,3.48937253 43.675273,4.42809876 C48.6383581,4.6395533 49.9810479,5.76212036 55.6802923,8.27675357 C61.3795367,10.7913868 64.0066664,12.657147 65.3732037,13.559221 C69.5326827,16.3049621 71.4126657,17.0856183 73.147847,19.087194 C74.0462114,20.12348 76.3049304,21.5325693 77.2537916,23.0291856 C77.7838388,23.8652165 78.7467392,25.3891451 79.6422945,24.575201 C80.9038488,23.428611 78.5211216,19.8973254 77.2537916,18.6167863 C67.3750298,8.63505993 61.8029658,4.598364 46.5586075,0.980593727 C36.3463646,-1.4429618 23.8726425,0.845065517 14.8436651,5.43742735 C6.05009039,9.91005754 0.5707735,16.6321405 0.178709113,18.6167863 C-0.351040406,21.2983998 0.296967108,21.6743949 2.12273166,19.7447718 Z" id="Path-4" stroke="#000000"></path>
            <g id="bras" transform="translate(42.000000, 47.903614)" stroke="#000000">
                <path d="M0,2.19399754 C0.912138984,0.940239161 1.46276999,0.263399584 1.65189303,0.163478813 C2.12707999,-0.0875802259 2.71001919,0.590544313 3.13296274,1.30582279 C3.39031021,1.74104661 4.27689303,1.36409416 3.47280649,2.33154348 C2.66871995,3.2989928 1.65312426,2.96736588 1.44846755,3.16419218 C1.13408484,3.46654624 0.831797353,4.30210686 0.788311298,4.56292799 C0.708853858,5.03949868 0.788311298,5.25982358 0.788311298,5.78102353 C0.788311298,6.9976843 0.667477949,7.48000579 1.27629207,8.23040905 C1.79112563,8.86497512 3.43858421,9.10172798 4.48677885,8.97725044 C5.06121971,8.90903316 5.72543024,8.93474265 6.02854567,9.2696309" id="Path-7" transform="translate(3.014273, 4.689894) scale(-1, 1) translate(-3.014273, -4.689894) "></path>
                <path d="M2.47862835,1.94687249 C1.80276822,1.94687249 1.75714143,3.41733075 1.33514879,4.20938876 C-0.114553054,6.9304029 0.0361273227,12.0006904 7.45233629,11.9530217" id="Path-8" transform="translate(4.033860, 6.950114) scale(-1, 1) translate(-4.033860, -6.950114) "></path>
            </g>
            <g id="bras" transform="translate(30.000000, 53.891566) scale(-1, 1) translate(-30.000000, -53.891566) translate(26.000000, 47.903614)">
                <path d="M0,2.19399754 C0.912138984,0.940239161 1.46276999,0.263399584 1.65189303,0.163478813 C2.12707999,-0.0875802259 2.71001919,0.590544313 3.13296274,1.30582279 C3.39031021,1.74104661 4.27689303,1.36409416 3.47280649,2.33154348 C2.66871995,3.2989928 1.65312426,2.96736588 1.44846755,3.16419218 C1.13408484,3.46654624 0.831797353,4.30210686 0.788311298,4.56292799 C0.708853858,5.03949868 0.788311298,5.25982358 0.788311298,5.78102353 C0.788311298,6.9976843 0.667477949,7.48000579 1.27629207,8.23040905 C1.79112563,8.86497512 3.43858421,9.10172798 4.48677885,8.97725044 C5.06121971,8.90903316 5.72543024,8.93474265 6.02854567,9.2696309" id="Path-7" stroke="#000000" transform="translate(3.014273, 4.689894) scale(-1, 1) translate(-3.014273, -4.689894) "></path>
                <path d="M2.47862835,1.94687249 C1.80276822,1.94687249 1.75714143,3.41733075 1.33514879,4.20938876 C-0.114553054,6.9304029 0.0361273227,12.0006904 7.45233629,11.9530217" id="Path-8" stroke="#040404" transform="translate(4.033860, 6.950114) scale(-1, 1) translate(-4.033860, -6.950114) "></path>
            </g>
            <path d="M40.5614398,56.2039349 C32.8129333,52.5660069 31.0553643,66.4842532 35.1239576,69.7220603 C38.114604,72.1020318 40.9266896,70.8058303 42.5548928,68.699951 C43.638741,67.2981275 44.1979892,65.537521 43.9360968,64.2636647 C43.3746307,61.5326686 42.6461385,58.0866098 42.1862098,57.4323153 C41.8795908,56.9961189 41.3380007,56.5866588 40.5614398,56.2039349 Z" id="Path-9" stroke="#000000"></path>
            <path d="M43,59.8795181 C42.6526795,57.4752471 41.1001761,54.2194071 38.8951453,53.9282516 C38.230343,53.8404701 36.9819844,53.8628977 35.9745853,54.5389994 C34.9147993,55.2502598 33.9810235,56.5372577 33.7390047,57.0984254 C33.4242885,57.828156 33.1779536,58.6934659 33,59.6943553" id="Path-10" stroke="#000000"></path>
        </g>
    </g>
</svg>