<?xml version="1.0" encoding="UTF-8"?>
<svg width="63px" height="73px" viewBox="0 0 63 73" version="1.1" xmlns="http://www.w3.org/2000/svg" xmlns:xlink="http://www.w3.org/1999/xlink">
    <!-- Generator: Sketch 48.2 (47327) - http://www.bohemiancoding.com/sketch -->
    <title>stageicon</title>
    <desc>Created with Sketch.</desc>
    <defs></defs>
    <g id="Page-1" stroke="none" stroke-width="1" fill="none" fill-rule="evenodd">
        <g id="Footer-section" transform="translate(-701.000000, -576.000000)" stroke="#000000">
            <g id="Pastille-contact" transform="translate(552.000000, 381.000000)">
                <g id="stageicon" transform="translate(150.000000, 196.000000)">
                    <path d="M31,69 C31,70.9091075 32.4754644,72.1983335 33,69.2989935" id="Path-22" fill="#FFFFFF"></path>
                    <path d="M34.7781212,52.5949381 C35.1114862,51.1269266 35.1551884,50.6512249 34.2976481,50.0224443 C34.1498748,49.9140913 32.3551587,50.2453197 33.6868518,50.0224443 C27.4615133,51.0316919 33.8823956,56.5393706 34.7781212,52.5949381 Z" id="Path-16" fill="#FFFFFF"></path>
                    <path d="M34.4375,53.1111111 C38.8538148,48.2313976 39.0272121,47.8652134 39.0359645,47.9032077 C39.0455963,47.94502 39.1732684,47.7286905 39.4189807,47.2542193 C39.5975814,46.7915329 39.7769171,46.4312421 39.956988,46.1733471 C40.055014,46.0329557 40.3156041,45.9412197 40.4523646,46.043782 C42.2133341,47.364406 39.197426,49.2102102 38.8165315,49.7716034 C37.5259882,51.673711 36.2248432,53.9979419 35.09375,56 L34,54.2222222 L34.4375,53.1111111 Z" id="Path-18" fill="#FFFFFF"></path>
                    <path d="M31.2671699,54.7 C29.7633885,52.9935406 27.1569144,48.3288273 25.278413,47.0580299 C24.7995735,46.7340973 23.7136369,47.8513779 24.0708144,48.3085701 L25.9129028,49.9506097 C27.0077098,51.3519783 28.2585451,52.7295701 28.8417972,54.4154964 C29.5789772,56.5463609 29.2359146,58.9317158 29.7776122,61.121792 C30.0532565,62.236218 31.0578307,63.0921508 31.2671699,64.2212455 C31.5069561,65.5145603 30.4956166,66.9905894 31.0833549,68.164465 C31.4505968,68.8979485 33.0974889,69.3617862 33.4768882,68.6346628 C34.3624116,66.9375466 33.8613641,64.8078857 33.8359839,62.8890185 C33.8259781,62.1325336 33.6317085,61.8619551 33.4768882,61.121792" id="Path-19" fill="#FFFFFF"></path>
                    <path d="M35.9243466,60.0715543 C36.1841225,63.257789 35.7048782,64.1501471 35.5384615,68.22874 C35.3720449,72.3073329 34.9584907,68.0733908 34.3846154,68.0140772 C34.0020318,67.9745349 33.6943395,67.9745349 33.4615385,68.0140772 C33.6153846,67.3651459 33.6923077,66.5064947 33.6923077,65.4381238 C33.6923077,63.8355675 33.584416,63.0182915 33.4615385,62.2181821 C33.3796201,61.6847758 33.2257739,61.2554502 33,60.9302054 C33.6153846,60.7870969 34.1538462,60.5724341 34.6153846,60.286217 C35.0769231,60 35.5132437,59.9284457 35.9243466,60.0715543 Z" id="Path-20" fill="#FFFFFF"></path>
                    <path d="M34.8828412,68.2738633 C34.7997224,68.3094913 34.3777031,68.0897325 34.2260094,68.0638412 C33.7942556,67.9901488 33.4835749,67.9680073 33.3231636,68.0638412 C32.6351109,68.474902 33.2481511,68.9448634 33.3231636,69.5 C33.4024231,70.0865662 32.9785816,70.7525189 33.5351679,70.9408225 C34.0659396,71.1203925 34.6661837,70.8660291 34.8828412,70.5172003 C35.0343622,70.2732441 34.8828412,69.5770317 34.8828412,69.2996214 C34.8828412,68.8158154 35.2488425,68.6860362 34.6870471,68.0638412" id="Path-21" fill="#FFFFFF"></path>
                    <path d="M31.2088938,54.7058824 C31.1651032,57.4897164 30.7615941,58.0025474 31.2088938,57.9999905 C31.6445047,57.9975005 32.4961831,57.4924438 35,57.2941176 L34.8,55.6470588 L33.8,54 C33.4701475,54.430963 33.1368142,54.6662572 32.8,54.7058824 C32.4631858,54.7455075 32.1298525,54.5886448 31.8,54.2352941 L31.2088938,54.7058824 Z" id="Path-23" fill="#FFFFFF"></path>
                    <path d="M34,54 C34.3333333,54.6554985 34.8771712,55.2194466 35,57" id="Path-24" fill="#FEFEFE"></path>
                    <path d="M30.4003549,57.6666667 C29.6631516,59.9030282 28.7850688,59.7933219 29.047438,60.2732296 C29.3094469,60.7524783 30.7204074,61.2086483 33.1008827,60.8986253 C33.914067,60.7927196 34.8462239,59.9495544 36,59.8734625 L35.0667258,57" id="Path-25" fill="#FFFFFF"></path>
                    <path d="M1.00435469,23 C5.84446839,5.67244681 32.3965222,0.641623365 47.0139453,7.48908464 C56.7192314,12.035479 53.6694831,11.5835101 59.9934757,19.5035924 C60.2093784,19.7739861 60.8886443,20.2898147 60.9372199,19.9487791 C61.9807659,12.6223335 49.7481957,3.59942267 44.0746679,1.68636278 C29.1527672,-3.34516089 1.50655716,2.7370879 0,21.8925656 L1.00435469,23 Z" id="Path-26" fill="#FFFFFF"></path>
                    <path d="M1,24 C17.9033526,35.9821945 9.60468799,28.626517 25,47" id="Path-27"></path>
                    <path d="M40,46 C44.2013067,35.9155523 51.3771337,27.5085302 59,20" id="Path-28"></path>
                    <path d="M31,54.5 L32,54" id="Path-41"></path>
                </g>
            </g>
        </g>
    </g>
</svg>