<?xml version="1.0" encoding="UTF-8"?>
<svg width="94px" height="146px" viewBox="0 0 94 146" version="1.1" xmlns="http://www.w3.org/2000/svg" xmlns:xlink="http://www.w3.org/1999/xlink">
    <!-- Generator: Sketch 48.2 (47327) - http://www.bohemiancoding.com/sketch -->
    <title>Tandem</title>
    <desc>Created with Sketch.</desc>
    <defs></defs>
    <g id="Page-1" stroke="none" stroke-width="1" fill="none" fill-rule="evenodd">
        <g id="Bapteme-section" transform="translate(-278.000000, -41.000000)">
            <g id="Tandem" transform="translate(279.000000, 42.000000)">
                <path d="M46,113 C46,113 48.6796952,115.040954 50,116 C47.3333333,114 46,113 46,113 Z" id="Path-8" stroke="#000000"></path>
                <path d="M55,115 C60.0494859,104.413946 57.0866929,107.945977 62,103" id="Path-9" stroke="#000000"></path>
                <path d="M61.2936568,103 C63.2432825,104.479654 60.6641668,106.072926 59.4767335,107.745374 C58.4230443,109.229449 58.9073401,110.803642 58,112" id="Path-10" stroke="#000000"></path>
                <path d="M45.7385504,113.126824 C44.3907005,99.5342238 39.2234412,111.933688 48,118" id="Path-11" stroke="#000000"></path>
                <path d="M48,119 C48.0597525,123.59099 47.9267498,127.218854 50.0465699,129.420823 C51.9075556,131.353928 54.0103373,129.958293 56.113559,132.779001 C56.4651024,133.593 57.0939161,134 58,134" id="Path-12" stroke="#000000"></path>
                <path d="M58,134.396289 C63.1069707,130.826002 60.623298,134.865065 58.3773855,138" id="Path-13" stroke="#000000"></path>
                <path d="M58,137.691281 C63.2471807,139.176111 63.7514674,135.036775 64,131" id="Path-14" stroke="#000000"></path>
                <path d="M64,131 C62.4392383,130.160966 62.2192748,130.053886 61.645002,130.004877 C60.9877535,129.948787 60.5204198,130.397025 57,130.298842" id="Path-15" stroke="#000000"></path>
                <path d="M58.9647864,139.53364 C57.073485,141.588087 54.6408731,143.094979 61.9142346,143.999661 C62.0657045,144.018501 63.2475226,143.249917 62.9530884,142.115157 C62.8459562,141.702266 60.9637435,141.495654 60.6191526,141.044132 C60.0722204,140.32748 61.0389141,139.386404 61.2355474,139" id="Path-16" stroke="#000000"></path>
                <path d="M64,135.907822 C68.6986479,137.821405 67.5,140.430308 68.9026655,138.047239 C69.0266525,137.83659 69.6078242,137.231336 69.761537,137.02461 C70.4599533,136.085322 71.6761928,135.490364 70.5255332,134.548318 C69.9214993,134.053796 67.6851616,135.391212 66.6761267,133.834804 C66.1234288,132.982284 65.0958221,132.611601 64.3056698,132" id="Path-17" stroke="#000000"></path>
                <path d="M45,118 C45.7101108,128.037311 43.7733448,130.762289 53,131" id="Path-18" stroke="#000000"></path>
                <path d="M44.9886652,115 C41.9897664,122.866251 37.8766695,128.189675 41.2872101,136.674152 C44.1353442,143.759519 54.4261765,140.827979 58,137.158459" id="Path-19" stroke="#000000"></path>
                <path d="M43.0131954,120 C43.0131954,132.159914 42.0316324,140.323622 57,135.67833" id="Path-20" stroke="#000000"></path>
                <path d="M3,59.939886 C15.2811168,60.8545226 15.7364005,51.1930978 26.3141415,40.4327752 C35.6347902,30.9512435 50.7312613,13.4146758 64.0453231,9.37172082 C97.4718815,-0.778605316 97.5984305,48.3665212 81.7777356,59.4637209 C80.9922961,60.0146562 75.8098453,60.6312225 75.1853435,58.0921661 C73.3260733,50.5328733 72.7420877,42.6677884 70.5120038,35.2099059 C67.1044108,23.8141787 62.7274828,18.8747031 52.3868319,15.1668424" id="Path-21" stroke="#000000"></path>
                <path d="M3.11624567,60 C3.11625058,60 -0.506172601,55.1756946 0.0600880221,48.9250416 C0.773253578,41.0527823 6.01138574,30.893291 9.70556431,24.9807661 C12.8777786,19.903644 13.6727842,19.9524968 15.6265814,17.9399054 C32.6707401,0.382848853 58.7118404,-5.60451404 83.4501408,5.91962804 C90.5538582,9.22883877 91.0179236,23.3439428 92,27.5760249" id="Path-22" stroke="#000000"></path>
                <path d="M9,60 C19.770412,76.572871 34.138408,89.0007061 44,106" id="Path-23" stroke="#000000"></path>
                <path d="M62,103 C62.7052033,87.1914263 70.9109108,73.1719524 79,60" id="Path-24" stroke="#000000"></path>
                <path d="M60.8644785,112.397453 C55.519579,110.800084 56.2537296,116.743049 59.8235308,117.901553 C62.6038445,118.803846 62.5547045,113.239279 60.6132489,112" id="Path" stroke="#000000"></path>
                <path d="M52.5045874,107.554779 C41.099867,107.72238 50.6546887,113.405884 52.5229989,112.976889 C55.1300397,112.37827 53.9326603,107.860082 51.6601391,107" id="Path-2" stroke="#000000"></path>
                <path d="M58.8844877,119.369269 C59.0363422,120.083389 57.2997857,121.556035 57.3382732,122.370371 C57.3618334,122.868869 55.5530234,124.977526 56.2631264,125.138991 C56.4396517,125.17913 56.7177141,124.810684 57.5231699,124.373768 C58.3270635,123.937699 58.8301845,123.407249 58.8844877,123.311814 C59.7906065,121.719346 60.835799,120.67169 62.0054446,120.67169 L63,122.166485 C62.4104861,123.061785 61.6586203,122.996052 60.9812915,123.522199 C60.3165241,124.038589 59.7288214,125.151295 58.8844877,125.555863 C58.6598117,125.663517 57.8237118,126.896978 57.3382732,127.079068 C56.776921,127.289633 55.8477196,128.174853 55.5008954,127.96926 C53.1881704,126.598306 53.9879901,123.944209 54.9891754,122.166485 C55.7857868,120.752006 55.9109823,118.80241 56.6625176,118" id="Path-3" stroke="#000000"></path>
                <path d="M63,116.303576 C72.8245464,107.0239 71.0843056,111.673182 65.2604399,117" id="Path-4" stroke="#010101"></path>
                <path d="M70,111 C70.1345018,110.267202 71.8011684,107.267202 75,102" id="Path-5" stroke="#000000"></path>
                <rect id="Rectangle" stroke="#000000" transform="translate(75.000000, 101.500000) rotate(33.000000) translate(-75.000000, -101.500000) " x="73.5" y="100.5" width="3" height="2"></rect>
                <path d="M63,124.107616 C67.5647304,123.662228 70.908903,124.623747 72.0748674,126.539395 C73.4745958,128.839111 72.602437,133.587814 75.590132,131.455133 C76.2129225,131.010572 76.1672802,130.971163 76.760977,131.455133 C77.3549403,131.939321 76.73672,132.988033 76.0532655,133.848054 C75.7048542,134.286475 75.3025063,135.444742 74.9235475,135.775787 C74.7351387,135.940375 73.3873304,136.371086 73.2861115,135.28784 C73.1982397,134.347435 74.0310633,133.141006 74.3080986,131.804671" id="Path-6" stroke="#000000"></path>
                <path d="M65,122 C73.9664866,123.444533 70.4486648,121.522278 76,127" id="Path-25" stroke="#000000" transform="translate(70.500000, 124.500000) rotate(14.000000) translate(-70.500000, -124.500000) "></path>
                <path d="M75,129.555035 C75.7020545,129.264862 75.6495697,128.328394 76.0125562,128.138398 C76.7587825,127.747805 76.6670199,128.2379 76.9326298,128.935357 C77.2451119,129.755894 76.357334,129.916739 76.5673526,131" id="Path-26" stroke="#000000" transform="translate(76.000000, 129.500000) rotate(14.000000) translate(-76.000000, -129.500000) "></path>
                <path d="M61,127.888631 C70.3720718,127.276874 67.2773937,125.549699 70.2702311,129.631691 C70.9515182,130.560912 71.2870578,132.39991 72.9068425,133.931188 C73.2291998,134.235931 73.6356142,133.444105 74,133.200564" id="Path-7" stroke="#000000" transform="translate(67.500000, 130.500000) rotate(14.000000) translate(-67.500000, -130.500000) "></path>
            </g>
        </g>
    </g>
</svg>