<?xml version="1.0" encoding="UTF-8"?>
<svg width="865px" height="226px" viewBox="0 0 865 226" version="1.1" xmlns="http://www.w3.org/2000/svg" xmlns:xlink="http://www.w3.org/1999/xlink">
    <!-- Generator: Sketch 48.2 (47327) - http://www.bohemiancoding.com/sketch -->
    <title>Footer mountain</title>
    <defs>
        <linearGradient x1="61.9757593%" y1="83.5340909%" x2="60.8495891%" y2="-16.125%" id="linearGradient-1">
            <stop stop-color="#073F18" offset="0%"></stop>
            <stop stop-color="#45771C" offset="29.7186923%"></stop>
            <stop stop-color="#79A720" offset="100%"></stop>
        </linearGradient>
    </defs>
    <g id="Page-1" stroke="none" stroke-width="1" fill="none" fill-rule="evenodd">
        <g id="Footer-section" transform="translate(-1.000000, -301.000000)" stroke="#000000">
            <g id="Footer-mountain" transform="translate(2.000000, 301.000000)">
                <path d="M0.5,186 L22,170 C26.7774727,167.857364 30.110806,166.524031 32,166 C36.4385345,164.768825 39.6690034,165.110332 41.5,164.5 C46,163 46.8855337,158.171177 50,156.5 C53.1144663,154.828823 58,155 63,153.5 C68,152 74,143.5 80,141.5 C86,139.5 98.5,117.5 101,117.5 C103.5,117.5 113.491917,132.510669 117.5,138 C121.508083,143.489331 118,140 124,149 C130,158 153.5,167.5 161,177.5 C168.5,187.5 192.922073,205.746665 198.5,208 C204.077927,210.253335 225,209.5 236.5,208 C248,206.5 285.5,186 289,186 C292.5,186 299,193.5 304,194.5 C309,195.5 316,190 322,190 C328,190 385.5,184.5 388.5,186 C391.5,187.5 397.432571,195.624564 403,198 C408.567429,200.375436 420.411433,200.673899 426,202 C431.588567,203.326101 429.5,205 432.5,205 C435.5,205 447,203.5 453.5,202 C460,200.5 502.813072,170.843464 504.5,170 C506.186928,169.156536 514.5,169 517.5,170 C520.5,171 527.5,173.5 532,173.5 C536.5,173.5 540.5,164 544.5,162.75 C548.5,161.5 552.5,166.5 557,164.5 C560,163.166667 569,156.666667 584,145 C590.338727,138.240219 594.17206,134.406886 595.5,133.5 C596.82794,132.593114 599.82794,131.759781 604.5,131 C609.794344,119.113202 612.961011,112.613202 614,111.5 C615.038989,110.386798 618.872322,109.386798 625.5,108.5 C625.5,101.833333 627.166667,98 630.5,97 C633.833333,96 644,99 661,106 C663,101.666667 665.833333,99.5 669.5,99.5 C673.166667,99.5 685,98 705,95 C707,89.6666667 709.166667,87 711.5,87 C715,87 724,108 729.5,106 C735,104 734,115.5 744,121 C754,126.5 748.036849,117.081358 754,121 C759.963151,124.918642 756,124.5 761.5,129 C767,133.5 792,141.5 803,141.5 C810.333333,141.5 830.166667,142.666667 862.5,145 L862.5,224.5 L0.5,224.5 L0.5,186 Z" id="3px" stroke-width="3" fill="url(#linearGradient-1)"></path>
                <path d="M1.5,211 L21,188 C31.7774727,179.524031 38.110806,175.024031 40,174.5 C44.4385345,173.268825 47.6690034,164.110332 49.5,163.5 C54,162 56.3855337,161.171177 59.5,159.5 C62.6144663,157.828823 71,141.5 76,140 C81,138.5 83.5,127 89.5,120 C95.5,113 98,99.5 100.5,99.5 C103,99.5 108.491917,114.510669 112.5,120 C116.508083,125.489331 112.5,127.5 118.5,136.5 C121.350543,140.775815 124.000572,149.707183 129.5,158 C135.576108,167.162418 144.563179,175.750905 148.5,181 C151.164949,184.553266 155.631653,190.416939 159.5,197 C166.51839,208.943729 173.404059,222.547335 177,224 L270,224 C277.5,218.5 285,211 288.5,211 C292,211 300,223 305,224 C313,218.666667 319,216 323,216 C329,216 386,209.5 389,211 C392,212.5 399,224 400.5,224 C402,224 460,224 463,224 C466,224 492.813072,193.343464 494.5,192.5 C496.186928,191.656536 504,183 507,184 C510,185 525.5,190 530,190 C534.5,190 540,170.75 544,169.5 C548,168.25 554,179.5 558.5,177.5 C561.5,176.166667 573.166667,159.666667 593.5,128 C598.505393,123.573552 601.67206,120.906886 603,120 C604.32794,119.093114 605.494607,116.093114 606.5,111 C607.833333,97 610.166667,89 613.5,87 C616.833333,85 621,83.5 626,82.5 C626.333333,72.1666667 628.166667,66.5 631.5,65.5 C634.833333,64.5 644.666667,69 661,79 C663.333333,73.6666667 666.333333,71 670,71 C673.666667,71 685.333333,67.8333333 705,61.5 C707,52.5 709.166667,48 711.5,48 C715,48 723.5,79 729,77 C734.5,75 734,95.5 744,101 C754,106.5 746.036849,98.581358 752,102.5 C757.963151,106.418642 754.5,111 760,115.5 C765.5,120 792.5,134 803.5,134 C807.217235,134 813.53048,137.201397 823.5,139 C829.965516,140.166445 842.79885,141.999778 862,144.5" id="2px" stroke-width="2"></path>
                <path d="M9.5,224.5 C17.5168769,205.400908 24.5168769,194.400908 30.5,191.5 C47,183.5 47.666209,169.786046 50.5,169 C54.9385345,167.768825 60.1690034,161.110332 62,160.5 C66.5,159 81,128.5 84.5,121.5 C88,114.5 98.5,77.5 101,77.5 C103.5,77.5 110,106.5 116,115.5 C118.850543,119.775815 116.500572,136.707183 122,145 C128.076108,154.162418 140.063179,182.250905 144,187.5 C146.664949,191.053266 157.131653,217.916939 161,224.5 C377,224.5 486,224.5 488,224.5 C491,224.5 495,214.5 498.5,209.5 C502,204.5 504.5,198.5 507.5,199.5 C510.5,200.5 526.5,207.5 531,207.5 C535.5,207.5 540.5,182.25 544.5,181 C548.5,179.75 553,192.5 557.5,190.5 C560.5,189.166667 572.5,164.166667 593.5,115.5 C598.17206,110.740219 601.17206,107.906886 602.5,107 C603.82794,106.093114 605.32794,100.093114 607,89 C608.666667,69.6666667 611.166667,59 614.5,57 C617.833333,55 621.5,53 625.5,51 C626.166667,36.3333333 628.166667,28.5 631.5,27.5 C634.833333,26.5 644.666667,32.8333333 661,46.5 C664,38.1666667 667.333333,34 671,34 C674.666667,34 685.5,29.8333333 703.5,21.5 C706.833333,7.5 709.666667,0.5 712,0.5 C715.5,0.5 723.5,46.5 729,44.5 C734.5,42.5 734.5,73.5 744.5,79 C754.5,84.5 749.5,79 752.5,80.5 C755.5,82 754,96 759.5,100.5 C765,105 790,127.5 801,127.5 C804.717235,127.5 814.03048,133.701397 824,135.5 C830.465516,136.666445 842.965516,139.833111 861.5,145" id="1px"></path>
            </g>
        </g>
    </g>
</svg>