<?xml version="1.0" encoding="UTF-8"?>
<svg width="268px" height="122px" viewBox="0 0 268 122" version="1.1" xmlns="http://www.w3.org/2000/svg" xmlns:xlink="http://www.w3.org/1999/xlink">
    <!-- Generator: Sketch 48.2 (47327) - http://www.bohemiancoding.com/sketch -->
    <title>Thangka</title>
    <defs>
        <linearGradient x1="27.0140843%" y1="60.6864596%" x2="11.469812%" y2="37.9694742%" id="linearGradient-1">
            <stop stop-color="#000000" offset="0%"></stop>
            <stop stop-color="#E4BC57" offset="100%"></stop>
        </linearGradient>
    </defs>
    <g id="Page-1" stroke="none" stroke-width="1" fill="none" fill-rule="evenodd">
        <g id="Thangka">
            <path d="M9.74316406,71.7924805 C7.5672871,71.4296329 4.03369141,64.5317383 2.546875,61.4926758 C-0.10817819,56.0657296 0.455078125,52.5556641 0.455078125,49.59375 C0.455078125,46.6318359 1.50634766,43.923584 4.98144531,39.5976563 C8.45654297,35.2717285 30.9423828,15.7412109 43.543457,9.24511719 C56.1445313,2.74902344 74.3874512,0.303466797 79.5224609,0.700439453 C84.6574707,1.09741211 88.1723633,1.31738281 95.015625,3.73828125 C101.858887,6.15917969 104.291156,9.00357972 109.213867,12.7783203 C114.136578,16.5530609 120.134766,25.4909668 121.228516,28.0534668 C122.322266,30.6159668 122.686279,33.7644043 121.228516,37.3076172 C120.967981,37.9408679 118.030806,40.7715971 112.416992,45.7998047 C108.200684,43.7895508 105.781738,42.6150716 105.160156,42.2763672 C104.227783,41.7683105 101.620955,39.8498301 95.015625,37.3076172 C88.4102946,34.7654043 87.9345335,34.6461195 80.9511719,32.9589844 C73.9678102,31.2718492 71.1794434,31.1530762 66.4091797,30.3964844 C63.2290039,29.8920898 55.4291992,29.8920898 43.0097656,30.3964844 C43.8157448,27.3005306 44.8655495,24.7015723 46.1591797,22.5996094 C48.0996249,19.446665 50.5512695,15.5703125 56.1445313,11.5751953 C61.737793,7.58007813 64.4673436,7.1451887 69.3378906,6.15917969 C72.584922,5.50184035 75.9797788,5.0682466 79.5224609,4.85839844 C71.9625651,4.78580729 64.3645833,6.24804688 56.7285156,9.24511719 C45.2744141,13.7407227 35.5422363,29.7507324 33.9667969,32.9589844 C32.3913574,36.1672363 24.7739861,59.2807569 23.6320801,61.8754883 C22.490174,64.4702197 21.2663574,68.7695312 19.3771973,69.5144043 C16.1866089,70.7724148 11.990614,72.1672635 9.74316406,71.7924805 Z" id="Path" fill="url(#linearGradient-1)"></path>
            <path d="M36.1303711,78.4077148 C34.7532126,79.0580482 33.0754782,78.8222083 31.097168,77.7001953 L31.097168,75.2998047 L58.4384766,55.777832 L59.1381836,49.815918 C63.8545583,47.4291716 66.7866872,46.2021208 67.9345703,46.1347656 C69.0824534,46.0674104 69.8283844,47.0786409 70.1723633,49.168457 L69.2705078,52.4335937 C70.2929761,52.4335937 72.8606844,52.4335937 76.9736328,52.4335937 C83.3430176,52.4335937 87.449707,50.4633789 88.9482422,49.815918 C90.4467773,49.168457 91.11169,46.5700283 92.4326172,45.6865234 C93.3132353,45.0975202 94.4854359,44.9131127 95.9492188,45.1333008 L95.9492188,47.9321289 L93.5756836,51.2529297 C94.9467254,50.6491391 95.9141733,50.6491391 96.4780273,51.2529297 C97.0418814,51.8567202 97.0418814,52.8926903 96.4780273,54.3608398 C94.3149414,52.9677734 92.5192057,53.6070964 91.0908203,56.2788086 C89.6624349,58.9505208 87.8085938,65.2908529 85.5292969,75.2998047 C85.9147135,76.4049479 86.6238607,76.4049479 87.6567383,75.2998047 C88.6896159,74.1946615 91.453776,71.1769206 95.9492188,66.246582 L100.588379,66.246582 L96.4780273,70.9672852 L95.9492188,90.2207031 C96.0334926,91.1134394 95.703089,91.7268834 94.9580078,92.0610352 C94.2129266,92.3951869 93.1754917,92.3951869 91.8457031,92.0610352 L92.4326172,84.4335937 L93.5756836,73.5512695 C93.0195312,73.7579753 92.4428711,74.1178385 91.8457031,74.6308594 C91.2485352,75.1438802 89.3357747,77.4314779 86.1074219,81.4936523 L84.1435547,92.0610352 L79.0754395,92.0610352 L82.1967773,74.6308594 C82.8626886,69.6892783 83.5116144,65.9337445 84.1435547,63.3642578 C84.7754949,60.7947711 85.6721421,58.2659626 86.8334961,55.777832 C85.3870443,54.8331706 83.1456706,55.0001628 80.109375,56.2788086 C77.0730794,57.5574544 72.3175456,59.4112956 65.8427734,61.840332 C64.2413639,66.7528464 63.2036035,71.0163555 62.7294922,74.6308594 C62.0183252,80.0526151 62.506958,83.3626709 62.7294922,85.5751953 C62.9520264,87.7877197 63.0779576,89.2318827 63.8085938,92.0610352 C64.2956845,93.9471368 64.9737444,95.8035821 65.8427734,97.6303711 L62.7294922,98.3066406 C60.8017578,96.5610352 59.6046549,95.2402344 59.1381836,94.3442383 C58.4384766,93.0002441 57.2358398,89.5922852 56.9311523,87.2783203 C56.6264648,84.9643555 56.6669697,83.4275508 56.2368164,77.7001953 C55.9500475,73.8819584 55.6549629,70.0640873 55.3515625,66.246582 C43.9145934,73.7036706 37.5075296,77.7573815 36.1303711,78.4077148 Z" id="Path-2" stroke="#000000" fill="#000000"></path>
            <path d="M123.635254,65.4248047 C120.927246,77.6132813 119.231283,84.1987305 118.547363,85.1811523 C117.863444,86.1635742 117.301758,84.4546712 116.862305,80.0544434 C114.254974,82.2186417 112.45875,83.7288142 111.473633,84.5849609 C109.995958,85.869181 109.856651,86.2466173 108.044434,86.9331055 C106.232216,87.6195937 105.091553,87.6140137 104.458984,87.2421875 C103.826416,86.8703613 102.923584,86.2531738 102.208008,83.7416992 C101.492432,81.2302246 101.520508,80.1096191 102.208008,77.4101563 C102.666341,75.6105143 104.969564,72.5812174 109.117676,68.3222656 C110.81456,66.859716 112.082545,65.8938957 112.921631,65.4248047 C114.18026,64.7211682 114.969786,64.5149005 115.716309,64.6333008 C116.462831,64.751701 115.648671,65.8054802 116.862305,66.0498047 C117.671394,66.2126877 118.599942,66.0043543 119.647949,65.4248047 L123.635254,65.4248047 Z M114.909668,69.1875 C112.147066,71.8808246 110.221447,73.8855447 109.132813,75.2016602 C107.49986,77.1758334 106.742333,78.4299078 106.266113,79.637207 C105.789894,80.8445063 105.474924,81.687617 106.266113,82.4692383 C107.057303,83.2508596 108.08252,83.0351563 109.132813,82.4692383 C109.833008,82.0919596 112.435384,80.4277344 116.939941,77.4765625 L116.939941,69.1875 L114.909668,69.1875 Z" id="Combined-Shape" stroke="#000000" fill="#000000"></path>
            <path d="M130.753418,63.0673828 L126.551758,83.2270508 L130.753418,83.2270508 C132.026241,78.9653703 133.279659,75.6054256 134.513672,73.1472168 C135.747684,70.689008 137.276981,68.5056584 139.101562,66.597168 C138.304214,76.5443184 137.93019,82.0876127 137.979492,83.2270508 C138.028794,84.3664889 138.679022,85.2066582 139.930176,85.7475586 L141.867676,84.5366211 L145.875488,59.8964844 C144.883711,58.116595 143.18498,58.116595 140.779297,59.8964844 C138.373613,61.6763738 136.285072,64.4784571 134.513672,68.3027344 L134.513672,63.0673828 L130.753418,63.0673828 Z" id="Path-5" stroke="#000000" fill="#000000"></path>
            <path d="M165.468262,53.8208008 C166.37655,52.9772852 167.635664,52.5063036 169.245605,52.407856 L169.245605,54.9814453 C168.47521,55.6020875 167.961701,56.1863974 167.705078,56.734375 C167.320144,57.5563413 167.936174,57.0651275 167.705078,58.2709961 C167.551014,59.0749085 167.040435,60.8820374 166.17334,63.6923828 C165.166178,82.4319661 164.662598,93.1591797 164.662598,95.8740234 C164.662598,98.5888672 164.085938,101.365397 162.932617,104.203613 L159.640137,109.314453 C157.90701,111.77471 156.039009,113.813772 154.036133,115.431641 C151.031819,117.858443 150.703779,117.817996 147.226562,119.341797 C144.908418,120.357664 142.852103,120.950112 141.057617,121.119141 C136.159505,121.60612 132.797363,121.388997 130.971191,120.467773 C128.231934,119.085937 127.403809,117.219727 126.848145,115.431641 C126.29248,113.643555 125.669119,111.012553 126.324707,107.276367 C126.980295,103.540182 127.508921,101.846244 129.870117,98.2094727 C131.444248,95.7849587 134.276442,92.6248024 138.366699,88.7290039 C135.145996,93.0877279 133.108236,96.2478841 132.253418,98.2094727 C131.3986,100.171061 130.827799,103.248698 130.541016,107.442383 C130.414632,108.581543 130.414632,109.698405 130.541016,110.792969 C130.730591,112.434814 132.062412,114.835995 133.710449,115.431641 C135.358487,116.027286 137.423349,116.011553 141.057617,115.431641 C143.480462,115.045032 145.536777,114.326119 147.226562,113.274902 C149.358406,112.27695 151.382169,110.9568 153.297852,109.314453 C156.171375,106.850933 158.07666,104.408203 158.858398,103.302734 C159.640137,102.197266 160.568638,100.662657 160.785645,97.4355469 C160.930315,95.2841401 160.930315,87.6864839 160.785645,74.6425781 C158.824563,78.9527421 156.574726,82.0012447 154.036133,83.7880859 C150.228243,86.4683478 147.940379,83.7880859 147.79248,83.7880859 C147.644582,83.7880859 146.301758,82.1052883 146.301758,80.1689453 C146.301758,78.2326023 146.66741,76.730681 147.79248,74.0390625 C148.917551,71.347444 149.620846,69.7109404 152.033203,66.4570312 C154.44556,63.2031221 155.224125,61.8423242 158.858398,59.112793 C161.281247,57.2931055 162.63932,57.0125066 162.932617,58.2709961 C163.714759,56.1477148 164.559974,54.6643164 165.468262,53.8208008 Z M161.454102,61.5043945 C159.566916,62.3419065 158.004904,63.5538205 156.768066,65.1401367 C154.91281,67.519611 153.83022,69.3005564 153.006836,70.9001465 C152.183452,72.4997366 152.154973,72.3569758 151.457031,74.9306641 C150.759089,77.5043523 150.548174,78.7764714 150.632324,79.65625 C150.688425,80.2427691 151.134388,80.4559852 151.970215,80.2958984 C156.340574,74.9522599 158.872963,71.8203425 159.567383,70.9001465 C160.261802,69.9799504 160.890709,68.9227401 161.454102,67.7285156 L161.454102,61.5043945 Z" id="Combined-Shape" stroke="#000000" fill="#000000"></path>
            <path d="M173.800781,69.7597656 C172.442745,70.1095456 171.594763,70.8536862 171.256836,71.9921875 L171.256836,73.8193359 C175.992196,73.6067118 179.069508,73.2984435 180.48877,72.8945312 C181.908031,72.490619 182.667634,71.7069276 182.767578,70.543457 L182.767578,68.4643555 L179.924316,69.7597656 C177.199996,69.4099857 175.158818,69.4099857 173.800781,69.7597656 Z" id="Path-7" stroke="#000000" fill="#000000"></path>
            <path d="M193.791504,26.5009766 C192.671387,26.8800456 192.111328,27.5183919 192.111328,28.4160156 C192.111328,29.7624512 190.84375,58.5566406 190.84375,59.2836914 C190.84375,60.0107422 192.039092,61.2032629 192.111328,61.7507324 C192.159486,62.1157121 191.959778,63.2896216 191.512207,65.2724609 C189.977539,64.4129232 189.048503,64.4129232 188.725098,65.2724609 C188.23999,66.5617676 188.293213,71.5036621 188.725098,72.1865234 C189.013021,72.6417643 189.719238,72.6417643 190.84375,72.1865234 L190.065918,77.3388672 C192.068804,77.3780476 193.431597,77.1471719 194.154297,76.6462402 C194.876997,76.1453086 195.305382,75.1346477 195.439453,73.6142578 C197.489571,73.3469841 199.778145,73.3469841 202.305176,73.6142578 C204.832207,73.8815315 207.352875,74.3901854 209.867182,75.1402196 L211.562988,76.2402344 L215.285156,76.2402344 C213.755534,74.4703776 212.514811,73.2822266 211.562988,72.6757812 C210.611165,72.0693359 208.579102,71.5014648 205.466797,70.972168 L197.643555,69.2451172 C195.075684,68.0742188 194.799479,66.1289062 196.814941,63.4091797 C199.838135,59.3295898 207.13259,53.3939587 207.739258,52.6293945 C208.143703,52.1196851 208.254298,50.53684 208.071045,47.8808594 C206.331787,48.2101237 205.05957,48.7173665 204.254395,49.4025879 C203.449219,50.0878092 200.510905,53.5436198 195.439453,59.7700195 C194.824544,58.8767904 194.396159,58.2566732 194.154297,57.909668 C193.912435,57.5626628 194.34082,53.7801107 195.439453,46.5620117 L195.439453,27.8647461 L193.791504,26.5009766 Z" id="Path-8" stroke="#000000" fill="#000000"></path>
            <path d="M218.224121,45.5356445 C220.200928,43.5742187 222.584961,45.2680664 223.473633,45.5356445 C224.066081,45.7140299 224.66097,45.7140299 225.258301,45.5356445 C225.222059,43.876706 225.415337,42.9043753 225.838135,42.6186523 C226.260932,42.3329294 227.506456,42.3329294 229.574707,42.6186523 C229.24223,47.7270145 229.24223,52.7737267 229.574707,57.7587891 C229.907184,62.7438514 230.539997,67.1853391 231.473145,71.083252 C230.453239,71.1979928 229.820427,71.0216419 229.574707,70.5541992 C229.328988,70.0867566 228.71359,68.1305391 227.728516,64.6855469 C227.25492,64.2933397 226.883663,64.2933397 226.614746,64.6855469 C226.345829,65.077754 224.89482,67.7354689 222.261719,72.6586914 C218.681966,73.2553711 216.467855,73.2553711 215.619385,72.6586914 C214.34668,71.7636719 213.503906,70.5541992 213.014648,67.8071289 C212.525391,65.0600586 212.546563,60.9043473 213.503906,56.8115234 C214.461249,52.7186996 216.247314,47.4970703 218.224121,45.5356445 Z M222.033691,50.0693359 C220.314504,51.8667998 219.942853,52.9700078 218.907715,55.6000977 C217.872577,58.2301875 217.814209,58.9213867 217.349609,61.9707031 C216.88501,65.0200195 216.831293,66.9413186 217.349609,68.3540039 C217.867925,69.7666892 218.332764,69.4604492 219.69165,68.3540039 C220.597575,67.6163737 222.71403,65.4886068 226.041016,61.9707031 C226.301319,61.7211586 226.301319,60.2994463 226.041016,57.7055664 C225.780712,55.1116865 225.3826,52.5662763 224.84668,50.0693359 C224.117479,48.8710267 223.179816,48.8710267 222.033691,50.0693359 Z" id="Combined-Shape" stroke="#000000" fill="#000000"></path>
            <text id="parapente" transform="translate(219.841797, 92.406250) rotate(-5.000000) translate(-219.841797, -92.406250) " font-family="ArialMT, Arial" font-size="20" font-weight="normal" letter-spacing="0.899999976" fill="#000000">
                <tspan x="170.841797" y="99.40625">parapent</tspan>
                <tspan x="256.996875" y="99.40625">e</tspan>
            </text>
        </g>
    </g>
</svg>