<?xml version="1.0" encoding="UTF-8"?>
<svg width="261px" height="288px" viewBox="0 0 261 288" version="1.1" xmlns="http://www.w3.org/2000/svg" xmlns:xlink="http://www.w3.org/1999/xlink">
    <!-- Generator: Sketch 48.2 (47327) - http://www.bohemiancoding.com/sketch -->
    <title>Main droite droite</title>
    <desc>Created with Sketch.</desc>
    <defs></defs>
    <g id="Page-1" stroke="none" stroke-width="1" fill="none" fill-rule="evenodd">
        <g id="Equipe-focus" transform="translate(-260.000000, 0.000000)" stroke="#979797">
            <g id="Main-droite-droite" transform="translate(260.000000, 0.000000)">
                <path d="M96.5,286.520067 L0.5,286.520067 C2.15945154,253.829005 5.43258815,232.126254 10.3194098,221.411813 C17.6682869,205.299274 22.561817,194.846507 25,190.053512 C32.3052704,175.692767 35.0515971,174.177411 43.5,163.657191 C51.9484029,153.13697 55.5,150.219064 62,143.979933 C68.5,137.740803 75.8699251,135.174112 94,130.541806 C112.130075,125.9095 122.095188,127.753835 131.5,126.222408 C140.904812,124.690981 141.052141,121.423077 150,121.423077 C153.034761,121.423077 155.868094,123.022854 158.5,126.222408 C158.5,124.942586 159.166667,123.342809 160.5,121.423077 C162.5,118.543478 176.181163,113.075766 178,112.304348 C179.212558,111.790069 180.545891,111.790069 182,112.304348 C186.560395,101.191936 189.393728,94.6328503 190.5,92.6270903 C191.606272,90.6213303 193.272938,89.0215532 195.5,87.8277592 C198.961305,78.6715448 201.294638,72.9123475 202.5,70.5501672 C203.705362,68.187987 205.372029,66.1082768 207.5,64.3110368 C208.508288,57.1786002 210.008288,51.2594251 212,46.5535117 C213.991712,41.8475983 216.825046,37.5282003 220.5,33.5953177 C221.285108,25.6890117 222.951775,19.2899036 225.5,14.3979933 C229.322338,7.06012787 244.953871,0.0987802338 250,0.959866221 C255.046129,1.82095221 256.709489,1.74142191 259.5,5.75919732 C261.36034,8.43771427 260.193674,17.0765103 256,31.6755853 L252.5,59.5117057 L250,93.5869565 C249.193637,99.6347171 249.52697,105.233937 251,110.384615 C253.5,113.744147 255.851385,113.653478 257,118.063545 C258.351385,123.25214 258.191018,124.467621 256,129.58194 C252.666667,132.461538 249.5,135.661093 246.5,139.180602 L240,170.856187 C236.666667,188.453735 232.5,202.051839 227.5,211.650502 L212,218.849498 C207.553598,221.105607 203.886932,222.545406 201,223.168896 C198.113068,223.792387 195.113068,223.792387 192,223.168896 C183.994157,226.60611 174.994157,229.325731 165,231.327759 C150.008764,234.330802 144.010551,234.50287 134.5,234.687291 C128.159633,234.810239 121.826299,234.01035 115.5,232.287625 L91.5,249.085284 C89.8333333,250.045151 88.5,251.804905 87.5,254.364548 C86.5,256.924192 89.5,267.642698 96.5,286.520067 Z" id="Path-102"></path>
                <path d="M57.5,175.655518 C56.6071872,181.974184 56.9405206,187.733382 58.5,192.93311 C60.8392192,200.732704 60.2076054,200.420126 67,207.331104 C73.7923946,214.242081 76.2342265,216.116372 83.5,218.369565 C88.343849,219.871694 93.6771823,219.551739 99.5,217.409699" id="Path-103"></path>
                <path d="M58,158.85786 C66.1189578,152.93604 72.7856244,149.096575 78,147.339465 C85.8215633,144.703799 92.9194903,143.943616 105,143.020067 C117.08051,142.096518 112.906526,140.963204 134.5,143.020067 C148.895649,144.391309 160.895649,146.471019 170.5,149.259197" id="Path-104"></path>
                <polyline id="Path-105" points="159 126.222408 161 134.381271 171 148.779264"></polyline>
                <path d="M136,157.897993 C138.529423,155.585747 141.362756,154.145948 144.5,153.578595 C157.044135,151.310059 162.29309,154.918533 170.5,151.658863 C175.971273,149.48575 180.971273,146.286196 185.5,142.060201 C188.901656,135.514001 193.234989,129.754803 198.5,124.782609 C206.102484,117.602941 206.603624,117.168526 216.5,112.784281 C226.103624,108.52973 226.915199,108.375873 237.5,107.505017 C244.415199,106.936074 243.5,107.98495 251,110.384615 C252.131176,111.470393 255.64171,114.012044 257,117.583612 C258.643653,121.905531 257.909072,127.450627 256,130.061873 C250.333333,134.861204 244.166667,139.980491 237.5,145.419732 C234.833333,150.858974 231.666667,156.778149 228,163.177258 C225.123058,166.85923 221.289725,169.898806 216.5,172.295987 L193.5,186.214047 C186.92136,190.140731 180.588027,194.620106 174.5,199.652174 C168.411973,204.684242 162.745306,210.123483 157.5,215.9699" id="Path-106"></path>
                <path d="M163,210.210702 L154,211.170569" id="Path-107"></path>
                <path d="M194,186.214047 C194.161882,188.824209 194.995215,191.063897 196.5,192.93311 C198.004785,194.802324 200.004785,196.082146 202.5,196.772575" id="Path-108"></path>
                <path d="M256,30.235786 C254,25.4364548 249,23.9966555 243.5,23.9966555 C235.020015,23.9966555 225.96868,32.0120974 224,38.8745819 C222.145787,45.3380538 220.645787,53.9768498 219.5,64.7909699 L219.5,73.4297659 C219.430038,70.8626272 218.763372,71.8224934 217.5,76.3093645 C215.604942,83.0396713 215.364766,80.5348583 214.5,91.187291 C213.923489,98.2889127 213.923489,105.647887 214.5,113.264214" id="Path-109"></path>
                <path d="M219.5,72.9498328 C220.336997,74.8467117 221.503664,76.2865111 223,77.2692308 C224.496336,78.2519505 226.496336,78.8918613 229,79.1889632" id="Path-110"></path>
                <polyline id="Path-111" points="192 117.103679 198 97.9063545 203 89.7474916 208 75.8294314"></polyline>
                <polyline id="Path-112" points="195.5 122.862876 203 105.105351 208 95.506689 216 60.951505"></polyline>
                <path d="M181,134.861204 C183.170207,127.275039 184.670207,122.635686 185.5,120.943144 C186.329793,119.250602 187.49646,118.450714 189,118.543478" id="Path-113"></path>
                <polyline id="Path-114" points="182 112.304348 189.5 115.183946 193.5 118.063545 197 125.742475"></polyline>
                <path d="M222.5,128.14214 C225.234424,121.992513 228.901091,117.513137 233.5,114.704013 C236.234424,113.033762 239.901091,113.033762 244.5,114.704013 C249.720399,117.016985 253.720399,119.896584 256.5,123.342809 C257.720399,124.855893 257.720399,126.935603 256.5,129.58194 L237.5,145.419732 L229,138.700669 L222.5,128.14214 Z" id="Path-115"></path>
                <path d="M199.5,156.458194 C201.733763,160.429675 204.233763,163.629229 207,166.056856 C209.766237,168.484484 213.09957,170.404216 217,171.816054" id="Path-116"></path>
                <polyline id="Path-117" points="76.5 241.886288 86 247.645485 91 249.565217"></polyline>
            </g>
        </g>
    </g>
</svg>