<?xml version="1.0" encoding="UTF-8"?>
<svg width="124px" height="122px" viewBox="0 0 124 122" version="1.1" xmlns="http://www.w3.org/2000/svg" xmlns:xlink="http://www.w3.org/1999/xlink">
    <!-- Generator: Sketch 48.2 (47327) - http://www.bohemiancoding.com/sketch -->
    <title>France</title>
    <desc>Created with Sketch.</desc>
    <defs></defs>
    <g id="Page-1" stroke="none" stroke-width="1" fill="none" fill-rule="evenodd">
        <g id="Footer-section" transform="translate(-72.000000, -591.000000)">
            <g id="France" transform="translate(73.000000, 592.000000)">
                <ellipse id="Oval-5" stroke="#979797" fill="#D8D8D8" cx="61" cy="59.9545455" rx="61" ry="59.6136364"></ellipse>
                <path d="M67.1288952,99.5340909 C45.46695,92.3821895 34.6359773,88.5916817 34.6359773,88.1625676 C34.6359773,87.5188965 38.5037458,82.0243205 39.4660057,78.9366147 C41.2036045,73.3609961 40.939784,67.9637638 41.2223796,67.7796485 C41.8810198,67.3505344 43.8569405,71.6416753 43.417847,70.354333 C42.9787535,69.0669907 39.4983435,58.815657 36.3923513,54.2625547 C34.0505194,50.829642 29.5864023,47.9688814 23,45.680273 L23,39.6726758 C27.9763928,38.5283715 31.4159585,38.0992574 33.3186969,38.3853335 C35.2214353,38.6714096 38.2950897,39.6726758 42.5396601,41.3891321 C42.5478806,39.251909 42.3283338,37.1778576 41.8810198,35.1669779 C41.5965114,33.887983 41.0842356,32.6721597 40.3441926,31.5195081 C42.3932956,31.090394 43.9667139,31.090394 45.0644476,31.5195081 C46.0158168,32.5207743 47.0769594,34.0941926 48.2478754,36.2397631 C54.2488196,33.6650785 58.7129367,31.2334321 61.6402266,28.9448236 C61.7134089,27.5144433 61.7134089,25.2258348 61.6402266,22.0789982 C64.421152,22.0789982 66.6166195,21.6498841 68.2266289,20.7916559 C74.6666667,29.6600137 85.424457,36.5258391 100.5,41.3891321 C97.4263456,45.680273 96.1090652,49.8998948 96.5481586,54.0479977 C92.5963173,59.1973667 88.1115121,63.385433 87.5467422,64.5612928 C86.9819723,65.7371526 91.4985836,63.4885076 91.4985836,64.5612928 C91.4985836,65.634078 98.3045326,82.7986415 97.8654391,84.0859838 C97.5727101,84.9442119 93.5476865,88.3056056 85.7903683,94.1701648 C81.8385269,89.4499099 77.2280453,88.0910486 71.9589235,90.093581 C69.2988661,91.1045372 67.6888566,94.2513738 67.1288952,99.5340909 Z" id="Path-58-Copy" stroke="#000000" fill="#FFFFFF"></path>
                <path d="M64.0989399,73 C63.024735,71.2465753 60.254417,69.4109589 60,66.6164384 C60,64.4474315 62.1314143,63 64.0989399,63 C66.0664656,63 68,64.6438356 68,66.6164384 C67.7173145,69.2465753 65.5689046,70.6164384 64.0989399,73 Z" id="Path-52-Copy-2" stroke="#000000"></path>
                <circle id="Oval-12-Copy-2" stroke="#000000" fill="#000000" cx="64.5" cy="66.5" r="1.5"></circle>
            </g>
        </g>
    </g>
</svg>