<?xml version="1.0" encoding="UTF-8"?>
<svg width="266px" height="246px" viewBox="0 0 266 246" version="1.1" xmlns="http://www.w3.org/2000/svg" xmlns:xlink="http://www.w3.org/1999/xlink">
    <!-- Generator: Sketch 48.2 (47327) - http://www.bohemiancoding.com/sketch -->
    <title>Plan oiseau</title>
    <desc>Created with Sketch.</desc>
    <defs></defs>
    <g id="Page-1" stroke="none" stroke-width="1" fill="none" fill-rule="evenodd">
        <g id="Footer-section" transform="translate(-255.000000, -578.000000)">
            <g id="Plan-oiseau" transform="translate(202.000000, 545.000000)">
                <g transform="translate(12.000000, 33.000000)">
                    <polyline id="Path-31" stroke="#000000" points="296.340909 36 281.079545 54.1037037 281.079545 69.5111111 277.022727 82.4148148 273.931818 88.7703704 265.625 97.0518519 265.625 103.214815 262.727273 107.644444 262.727273 114 258.670455 122.859259 255 136.725926 258.670455 145.585185 265.625 147.318519 270.261364 158.103704 275.670455 161.762963 281.079545 183.525926 284.170455 190.459259 287.647727 194.696296 289.965909 203.17037 296.340909 212.414815 296.340909 225.125926 306 233.407407 306 244"></polyline>
                    <polyline id="Path-32" stroke="#000000" points="259 145.912281 249.357409 145.912281 240.679077 144.175439 235.664929 138.77193 226.022338 137.035088 214.258377 132.789474 203.265823 125.842105 204.808637 120.631579 203.265823 118.122807 192.466121 120.631579 189.380491 116 184.752048 118.122807 175.880864 116 159.488459 118.122807 159.488459 120.631579 145.795979 132.789474 143.481757 144.175439 131.910648 156.333333 124.196575 161.54386 117.253909 171.192982 99.897245 182.578947 92.3760238 189.526316 89.2903946 189.526316 89.2903946 187.210526 84.8548027 187.210526 73.6693969 194.157895 67.4981385 194.157895 59.9769173 200.140351 49.9486225 207.087719 45.7058824 204.964912 34.5204765 204.964912 34.5204765 207.087719 29.5063291 212.105263 25.8421445 217.701754 16.0067014 217.701754 11.5711095 222.526316 6.55696203 240.666667 0 248"></polyline>
                    <polyline id="Path-33" stroke="#000000" points="61.2409639 37 61.2409639 41.4415744 58.5421687 43.3726937 54.8795181 50.1316113 51.9879518 48.200492 46.3975904 59.400984 46.3975904 69.2496925 41 73.8843788 48.5180723 76.7810578 58.5421687 87.7884379 58.5421687 95.1266913 54.8795181 101.885609 64.9036145 111.734317 61.2409639 114.051661 67.4096386 114.051661 61.2409639 118.300123 61.2409639 121.00369 67.4096386 126.0246 64.9036145 128.535055 67.4096386 139.735547 73 148.232472 67.4096386 152.867159 64.9036145 162.136531 64.9036145 165.99877 61.2409639 168.702337 64.9036145 176.619926 61.2409639 184.537515 67.4096386 194"></polyline>
                    <polyline id="Path-34" stroke="#000000" points="73.5657895 194 71 200.402985 73.5657895 204.283582 71 208.746269 76.3289474 218.253731 86 229.119403 78.5 236.880597 73.5657895 242.507463 76.3289474 246"></polyline>
                    <polyline id="Path-35" stroke="#000000" points="113 36 116.46789 41.1923077 126.100917 48.6923077 133.614679 46.3846154 133.614679 54.2692308 144.40367 60.4230769 150.183486 67.1538462 164.440367 71.9615385 169.449541 68.8846154 177.348624 76.3846154 175.229358 82.3461538 180.045872 89.8461538 177.348624 98.3076923 171.568807 100.423077 187.174312 114.076923 189.678899 116 197.963303 116 219.541284 105.423077 226.669725 107.730769 235.33945 89.8461538 248.633028 82.3461538 255.183486 71.9615385 265.587156 65.0384615 281 60.4230769"></polyline>
                    <polyline id="Path-119" stroke="#000000" points="241 144 241 149.966038 236.037344 157.279245 231.074689 159.396226 224.20332 187.686792 227.06639 193.267925 224.20332 202.120755 224.20332 206.739623 227.06639 212.70566 227.06639 218.09434 222.103734 222.135849 218.286307 228.679245 216.568465 231.758491 212.178423 228.679245 210.460581 233.490566 202.253112 238.49434 195 246"></polyline>
                    <path d="M160.759717,101 C157.939929,96.4410959 150.667845,91.6684932 150,84.4027397 C150,78.7633219 155.594962,75 160.759717,75 C165.924472,75 171,79.2739726 171,84.4027397 C170.257951,91.2410959 164.618375,94.8027397 160.759717,101 Z" id="Path-52-Copy" stroke="#000000"></path>
                    <circle id="Oval-12-Copy" stroke="#000000" fill="#000000" cx="161" cy="84" r="4"></circle>
                    <text id="Massiac" font-family="ArialMT, Arial" font-size="9" font-weight="normal" letter-spacing="0.674999952" fill="#000000">
                        <tspan x="268.311628" y="70.691232">Massiac</tspan>
                    </text>
                    <text id="Saint-Flour" font-family="ArialMT, Arial" font-size="9" font-weight="normal" letter-spacing="0.899999976" fill="#000000">
                        <tspan x="242.2" y="156.223613">Saint-Flour</tspan>
                    </text>
                    <text id="Aurillac" font-family="ArialMT, Arial" font-size="9" font-weight="normal" letter-spacing="0.674999952" fill="#000000">
                        <tspan x="73.3906977" y="204.297114">Aurillac</tspan>
                    </text>
                    <text id="Salers" font-family="ArialMT, Arial" font-size="9" font-weight="normal" letter-spacing="0.674999952" fill="#000000">
                        <tspan x="78.5348837" y="108.611848">Salers</tspan>
                    </text>
                    <text id="Drils" font-family="Arial-BoldMT, Arial" font-size="9" font-weight="bold" letter-spacing="0.674999952" fill="#000000">
                        <tspan x="150" y="109">Drils</tspan>
                    </text>
                    <text id="Mauriac" font-family="ArialMT, Arial" font-size="9" font-weight="normal" letter-spacing="0.674999952" fill="#000000">
                        <tspan x="47" y="76.0206437">Mauriac</tspan>
                    </text>
                    <text id="N122" font-family="Arial-BoldMT, Arial" font-size="14" font-weight="bold" letter-spacing="0.899999976" fill="#000000">
                        <tspan x="120" y="177">N122</tspan>
                    </text>
                    <text id="A75" font-family="Arial-BoldMT, Arial" font-size="14" font-weight="bold" letter-spacing="0.899999976" fill="#000000">
                        <tspan x="270" y="137">A75</tspan>
                    </text>
                    <text id="Clermont" font-family="Arial-BoldMT, Arial" font-size="9" font-weight="bold" letter-spacing="0.674999952" fill="#000000">
                        <tspan x="245.311628" y="10.691232">Clermont-</tspan>
                        <tspan x="245.311628" y="20.691232">Ferrand</tspan>
                    </text>
                    <path d="M300.5,30.5 L300.5,13.5" id="Line-7" stroke="#000000" stroke-linecap="square"></path>
                    <path d="M294.5,15.5 L300.5,0.5" id="Line-11" stroke="#000000" stroke-linecap="square"></path>
                    <path d="M300.5,15.5 L306.5,0.5" id="Line-11-Copy" stroke="#000000" stroke-linecap="square" transform="translate(303.500000, 8.000000) scale(-1, 1) translate(-303.500000, -8.000000) "></path>
                </g>
            </g>
        </g>
    </g>
</svg>