<?xml version="1.0" encoding="UTF-8"?>
<svg width="866px" height="437px" viewBox="0 0 866 437" version="1.1" xmlns="http://www.w3.org/2000/svg" xmlns:xlink="http://www.w3.org/1999/xlink">
    <!-- Generator: Sketch 48.2 (47327) - http://www.bohemiancoding.com/sketch -->
    <title>Souffle origine</title>
    <desc>Created with Sketch.</desc>
    <defs></defs>
    <g id="Page-1" stroke="none" stroke-width="1" fill="none" fill-rule="evenodd">
        <g id="Equipe-section" transform="translate(-9.000000, -264.000000)" stroke="#979797">
            <g id="Souffle-origine" transform="translate(10.000000, 265.000000)">
                <path d="M187.709159,0 C213.056142,6.65194427 236.511285,18.1513754 258.074589,34.4982935 C262.340429,37.7321826 258.357616,46.6484949 260.93075,55.5085324 C264.459415,67.6587338 266.531834,64.4322575 270.278187,76.5187713 C274.45119,89.9817456 274.692401,90.9209707 276.769463,106.607509 C277.938039,115.432916 276.40928,120.730141 276.769463,125.542662 C277.129646,130.355183 276.769463,129.174061 278.846671,134.361775 C280.92388,139.549488 288.603319,144.777857 296.502942,159.003413 C298.470058,162.545775 299.687245,166.780803 298.58015,169.897611 C297.195344,171.626849 294.598834,173.356086 290.790619,175.085324 L283.001088,178.716724 C286.144476,183.045027 288.740987,187.973355 290.790619,193.501706 C291.610936,195.714299 291.745042,198.169664 290.790619,199.726962 C289.405813,200.937429 286.809303,203.098976 283.001088,206.211604 C286.963808,211.94905 288.435164,215.666911 287.415155,217.365188 C286.895853,218.229807 285.424498,219.526735 283.001088,221.255973 L276.769463,225.406143 C276.616972,227.266641 276.616972,229.082341 276.769463,230.853242 C277.57933,240.258323 278.846671,242.784983 278.846671,249.52901 C277.111106,257.157694 274.869563,257.491166 270.278187,259.385666 L254.958776,259.385666 C247.861648,259.385666 240.418319,259.385666 232.628788,259.385666 C221.276579,261.286692 221.463793,261.460751 210.039148,266.90785 C204.499926,271.05802 198.527952,276.937429 192.123227,284.546075 L170.31254,309.706485 C158.56905,323.207473 148.096458,339.11646 138.894765,357.433447 C136.325611,362.547632 135.027356,370.069816 135,380" id="Path-75"></path>
                <path d="M188,0 C158.505551,0.273157864 136.839803,2.25457678 123.002755,5.94425676 C102.247182,11.4787767 97.7920836,16.2717809 73.2837466,38.5084459 C48.7754095,60.745111 51.4361969,58.0492854 31.8512397,88.6469595 C18.7946015,109.045409 8.17752161,130.496422 0,153" id="Path-76"></path>
                <path d="M262,56.6274361 C253.144683,47.2737797 244.810267,43.1165991 236.996752,44.1558943 C225.276479,45.714837 215.038865,52.5926491 203.659087,67.2802115 C192.279309,81.9677738 196.366473,94.3018855 190.897012,103.655542 C181.781244,113.78867 175.790883,117.166379 159.12205,122.622678 C152.089887,122.622678 149.668777,117.393668 142.453218,114.490194 C134.171972,111.157897 133.858351,109.371665 128.12844,110.151137 C119.65292,111.304108 116.668618,117.166379 114.324564,125.740564 C112.50141,134.054925 112.616485,135.627251 114.324564,144.967524 C116.132566,154.854211 115.653307,155.961159 121.356727,164.194485 C126.722453,171.940322 138.806911,184.200916 149.224931,184.980388 C152.388173,185.21706 155.687213,183.311686 159.12205,179.264264" id="Path-77"></path>
                <path d="M144.674174,130 C142.106294,134.539285 139.966393,137.419985 138.254473,138.642101 C135.034047,140.941117 135.686593,139.95151 131.064408,142.046565 C128.734321,145.148967 129.010104,147.284201 129.010104,150.950547 C130.148385,154.613707 132.759063,157.843583 136.842139,160.640175 C140.036337,161.683852 143.331783,162.382203 146.728478,162.73523 C150.125173,163.088257 153.549014,163.088257 157,162.73523 C154.847739,160.095313 153.221414,157.476495 152.121027,154.878775 C151.02064,152.281055 150.335872,149.444001 150.066723,146.367615 L144.674174,150.950547" id="Path-78"></path>
                <path d="M129,173 C125.897796,199.707488 120.210421,221.212219 111.937876,237.514193 C106.767535,243.410651 97.2024048,250.867937 83.242485,259.88605 C67.8842162,269.894497 55.8200879,276.397944 47.0501002,279.39639 C38.2801125,282.394837 28.0256035,283.522101 16.2865731,282.778183 L0,282.778183" id="Path-79"></path>
                <path d="M273,106 C273,102.870185 259.398431,93.8320097 256.337278,94.0023761 C253.213018,94.1762547 244.100592,96.8713731 229,102.087731" id="Path-80"></path>
                <path d="M239,134 C252,136 261.166667,140.166667 266.5,146.5 C271.048348,151.901164 272.088917,157.952353 273.5,164 C274.570843,168.58944 274.879421,188.062701 267.5,200 C260.120579,211.937299 269.5,213.59355 269.5,217" id="Path-85"></path>
                <path d="M289.842543,169.863582 C289.842543,167.962176 285.224948,168 282.977516,168.5 C280.730084,169 275.443405,170.012748 276.173855,171.493358 C276.904305,172.973968 277.8647,173.226066 280.5,173.5 C283.1353,173.773934 284.840973,172.965363 287,172 C289.159027,171.034637 289.842543,171.764988 289.842543,169.863582 Z" id="Path-87"></path>
                <path d="M291,195 C290.116667,193.938969 289.3125,193.340377 288.5875,193.204226 C287.5,193 287.5,192.5 285,194.5 C282.5,196.5 283.636654,198.379098 282,200 C280.908898,201.080601 278.904731,201.747268 275.9875,202 L271,202" id="Path-88" stroke-linecap="round"></path>
                <path d="M284,221 C283.333333,219.333333 282.833333,217.666667 282.5,216 C282,213.5 282.852236,213.568683 281.5,210 C280.147764,206.431317 274.954412,203.241999 275.5,202.5 C275.969608,201.861333 278.636275,203.194666 283.5,206.5" id="Path-89"></path>
                <path d="M184,295 C192.588522,296.586702 200.000618,299.255371 206.236287,303.006006 C215.589791,308.631959 217.572421,312.022291 223.50211,318.75976 C227.455236,323.251405 230.943281,328.502657 233.966245,334.513514 C236.128988,338.366897 238.309016,343.618148 240.506329,350.267267 C242.703642,356.916387 244.534866,367.160631 246,381" id="Path-90"></path>
                <path d="M273,106.179487 L265.494118,109 C261.007843,102.333333 257.901961,99 256.176471,99 C249.927512,99 240.868688,100.196581 229,102.589744" id="Path-95"></path>
                <path d="M145,124.748669 C142.606275,119.54247 139.832941,116.485429 136.68,115.577549 C133.04,114.52942 129.897258,114.594536 125.24,118.459901 C122.12,121.866317 120.498834,123.755986 119,130.251342 C119,133.570414 119.346667,137.151519 120.04,140.994655 C121.426667,148.331552 122.466667,152 123.16,152 C124.2,152 123.16,142.304815 125.24,136.540111 C128.88,132.347598 130.130779,133.228574 135.12,130.251342 C138.38052,128.305683 141.673853,126.471459 145,124.748669 Z" id="Path-97"></path>
                <path d="M145.339623,132 C146.220126,136.285714 146.220126,139.321429 145.339623,141.107143 C144.459119,142.892857 142.345912,144.857143 139,147" id="Path-98"></path>
                <path d="M246,381 C248.816078,397.544461 279.650794,426.419947 320,434 C360.349206,441.580053 371.114761,415.393686 416,424 C460.885239,432.606314 459.5,424 535.5,397.5 C611.5,371 729,351 761.5,341 C783.166667,334.333333 817.666667,330.333333 865,329" id="Path-84"></path>
                <path d="M273,106 C272.346371,116.544519 260.232569,125.720144 269.441889,134" id="Path-123"></path>
                <path d="M265,129 C265.307067,133.217291 264.730386,130.557301 269,136" id="Path-124"></path>
                <path d="M251,123 C262.367712,123.950242 257.898464,122.339003 265,126" id="Path-125"></path>
                <path d="M265,128.838608 C249.715559,129.986021 255.456629,124.697669 243,123" id="Path-127"></path>
                <path d="M248.031219,125 C248.084013,128.137665 247.461997,126.79031 250,129" id="Path-128"></path>
                <path d="M250,125 C250.127664,128.75403 249.5763,126.639757 253,131" id="Path-129"></path>
                <path d="M252,127 C252.906591,132.271469 251.572591,129.784961 257,134" id="Path-130"></path>
                <path d="M254,128 C255.365015,133.590792 254.011454,130.766409 259,136" id="Path-131"></path>
                <path d="M256,129 C259.336672,136.309628 257.128167,133.465146 262,138" id="Path-132"></path>
                <path d="M258,129 C260.333333,132 262.666667,135 265,138" id="Path-133"></path>
                <path d="M260,129 C265.129322,135.569617 262.331882,133.053052 268,137" id="Path-134"></path>
                <path d="M263,129 C266.557454,135.988828 263.846438,133.019001 272,137" id="Path-135"></path>
                <path d="M265,129 C266.666667,131 268.333333,133 270,135" id="Path-136"></path>
                <path d="M260,129 C261.952689,134.065861 260.451096,131.619392 265,136" id="Path-137"></path>
                <path d="M257,128 C258,130.333333 259,132.666667 260,135" id="Path-138"></path>
                <path d="M255,128 C255.666667,129.333333 256.333333,130.666667 257,132" id="Path-139"></path>
                <path d="M253,127 C253.222331,128 253.444661,129 253.666992,130" id="Path-140"></path>
            </g>
        </g>
    </g>
</svg>