<?xml version="1.0" encoding="UTF-8"?>
<svg width="488px" height="548px" viewBox="0 0 488 548" version="1.1" xmlns="http://www.w3.org/2000/svg" xmlns:xlink="http://www.w3.org/1999/xlink">
    <!-- Generator: Sketch 48.2 (47327) - http://www.bohemiancoding.com/sketch -->
    <title>voile</title>
    <desc>Created with Sketch.</desc>
    <defs>
        <linearGradient x1="27.0140843%" y1="60.6864596%" x2="11.469812%" y2="37.9694742%" id="linearGradient-1">
            <stop stop-color="#000000" offset="0%"></stop>
            <stop stop-color="#E4BC57" offset="100%"></stop>
        </linearGradient>
    </defs>
    <g id="Page-1" stroke="none" stroke-width="1" fill="none" fill-rule="evenodd">
        <g id="voile">
            <path d="M467.447084,181.806358 L422.12527,379.94894" id="Line-5" stroke="#000000" stroke-linecap="square"></path>
            <path d="M66.9287257,306.172447 L337.805616,424.214836" id="Line-6" stroke="#000000" stroke-linecap="square"></path>
            <path d="M375.74946,421.052987 C363.101512,411.567437 359.939525,402.081888 366.263499,392.596339 C372.587473,383.11079 382.424766,383.989082 395.775378,395.231214 C407.36933,392.420681 414.571634,392.420681 417.382289,395.231214 C418.371348,396.22023 418.245116,398.661583 420.017279,402.608863 C421.789442,406.556143 433.104845,422.91058 435.300216,439.49711 C437.495587,456.08364 432.665227,471.115607 429.50324,474.277457 C427.395248,476.385356 422.300936,477.439306 414.220302,477.439306 C411.661498,486.234425 407.182016,491.855492 400.781857,494.302505 C394.381699,496.749518 386.915896,495.695568 378.384449,491.140655 C380.141109,522.407836 381.019438,538.744059 381.019438,540.149326 C381.019438,542.257225 380.076031,541.849219 373.114471,543.83815 C366.15291,545.827081 362.229322,547.891542 358.885529,546.473025 C355.541737,545.054508 353.643097,540.918404 355.723542,536.460501 C357.110505,533.488566 360.623824,531.556324 366.263499,530.663776 L355.723542,491.140655 C346.775012,497.830001 339.92404,503.626725 335.170626,508.530829 C328.040505,515.886983 325.684665,523.813102 322.522678,525.394027 C319.360691,526.974952 303.478834,518.244244 300.915767,514.854528 C298.352699,511.464812 305.131749,504.842004 306.712743,504.842004 C307.766739,504.842004 310.577394,506.071612 315.144708,508.530829 C326.738661,493.77553 333.413967,483.411689 335.170626,477.439306 C337.805616,468.480732 338.332613,466.513714 341.4946,461.630058 C343.602592,458.374287 352.473722,457.320337 368.107991,458.468208 L373.114471,452.671484 C353.458888,438.894186 342.918931,431.340878 341.4946,430.011561 C339.358105,428.017585 335.170626,423.160886 341.4946,423.160886 C345.710583,423.160886 357.12887,426.849711 375.74946,434.22736 L375.74946,421.052987 Z" id="Path-37" stroke="#000000" fill="#FFFFFF"></path>
            <path d="M375.74946,421.052987 C363.101512,411.567437 359.939525,402.081888 366.263499,392.596339 C372.587473,383.11079 382.424766,383.989082 395.775378,395.231214 C407.36933,392.420681 414.571634,392.420681 417.382289,395.231214 C418.371348,396.22023 418.245116,398.661583 420.017279,402.608863 C421.789442,406.556143 433.104845,422.91058 435.300216,439.49711 C437.495587,456.08364 432.665227,471.115607 429.50324,474.277457 C427.395248,476.385356 422.300936,477.439306 414.220302,477.439306 C411.661498,486.234425 407.182016,491.855492 400.781857,494.302505 C394.381699,496.749518 386.915896,495.695568 378.384449,491.140655 C380.141109,522.407836 381.019438,538.744059 381.019438,540.149326 C381.019438,542.257225 380.076031,541.849219 373.114471,543.83815 C366.15291,545.827081 362.229322,547.891542 358.885529,546.473025 C355.541737,545.054508 353.643097,540.918404 355.723542,536.460501 C357.110505,533.488566 360.623824,531.556324 366.263499,530.663776 L355.723542,491.140655 C346.775012,497.830001 339.92404,503.626725 335.170626,508.530829 C328.040505,515.886983 325.684665,523.813102 322.522678,525.394027 C319.360691,526.974952 303.478834,518.244244 300.915767,514.854528 C298.352699,511.464812 305.131749,504.842004 306.712743,504.842004 C307.766739,504.842004 310.577394,506.071612 315.144708,508.530829 C326.738661,493.77553 333.413967,483.411689 335.170626,477.439306 C337.805616,468.480732 338.332613,466.513714 341.4946,461.630058 C343.602592,458.374287 352.473722,457.320337 368.107991,458.468208 L373.114471,452.671484 C353.458888,438.894186 342.918931,431.340878 341.4946,430.011561 C339.358105,428.017585 335.170626,423.160886 341.4946,423.160886 C345.710583,423.160886 357.12887,426.849711 375.74946,434.22736 L375.74946,421.052987 Z" id="Path-37" stroke="#000000" fill="#FFFFFF"></path>
            <path d="M408.950324,393.123314 C416.27488,383.8003 420.666528,379.584501 422.12527,380.475915 C423.584012,381.36733 422.530016,387.164054 418.963283,397.866089" id="Path-38" stroke="#000000" fill="#FFFFFF"></path>
            <g id="Thangka"></g>
            <path d="M37.4182051,285.371639 C28.6993363,283.91597 14.5400076,256.243056 8.58224552,244.05097 C-2.056711,222.279194 0.200290652,208.197543 0.200290652,196.314961 C0.200290652,184.432379 4.41279038,173.567437 18.337714,156.212717 C32.2626376,138.857997 122.364739,60.5056325 172.857996,34.4446588 C223.351252,8.3836851 296.45172,-1.42737826 317.028011,0.165193273 C337.604301,1.7577648 351.688685,2.6402414 379.110043,12.3523812 C406.531401,22.064521 416.27765,33.4756609 436.003247,48.6191331 C455.728844,63.7626053 479.763938,99.6196202 484.14666,109.899836 C488.529381,120.180052 489.988006,132.810926 484.14666,147.025558 C483.102682,149.566028 471.333248,160.922323 448.83836,181.094444 C431.94336,173.029724 422.250501,168.317958 419.759785,166.959147 C416.023711,164.92093 405.577996,157.224386 379.110043,147.025558 C352.64209,136.82673 350.735687,136.348184 322.752941,129.57975 C294.770194,122.811315 283.597041,122.334823 264.48231,119.299534 C251.739156,117.276008 220.484874,117.276008 170.719462,119.299534 C173.949069,106.879213 178.155699,96.4527341 183.339352,88.0200971 C191.114832,75.3711416 200.938718,59.8200236 223.351252,43.7924464 C245.763785,27.7648692 256.701257,26.0201835 276.21783,22.064521 C289.228878,19.4274126 302.832272,17.6879249 317.028011,16.8460578 C286.735057,16.5548373 256.289491,22.4210376 225.691312,34.4446588 C179.794044,52.4800906 140.796627,116.708912 134.483747,129.57975 C128.170867,142.450588 97.6476059,235.177213 93.0719202,245.586734 C88.4962345,255.996256 83.5923284,273.244197 76.0223509,276.232473 C63.2374731,281.279348 46.4238711,286.875191 37.4182051,285.371639 Z" id="Path" fill="url(#linearGradient-1)"></path>
        </g>
    </g>
</svg>