<?xml version="1.0" encoding="UTF-8"?>
<svg width="40px" height="30px" viewBox="0 0 40 30" version="1.1" xmlns="http://www.w3.org/2000/svg" xmlns:xlink="http://www.w3.org/1999/xlink">
    <!-- Generator: Sketch 48.2 (47327) - http://www.bohemiancoding.com/sketch -->
    <title>youtube</title>
    <desc>Created with Sketch.</desc>
    <defs></defs>
    <g id="Page-1" stroke="none" stroke-width="1" fill="none" fill-rule="evenodd">
        <g id="Footer-section" transform="translate(-592.000000, -596.000000)" fill="#E02F2F">
            <g id="Pastille-contact" transform="translate(552.000000, 381.000000)">
                <path d="M42.411775,216.69665 C43.8948103,215.168674 51.8712566,214.990052 59.9944006,215.000404 C68.0082194,215.010617 76.1690273,215.189238 77.7651102,216.69665 C79.7425794,218.505824 80.0345131,223.871741 79.9970126,229.28458 C79.9549412,235.357202 79.3699878,241.490809 77.7651102,242.765271 C76.3358,244.146937 67.9037468,244.779769 59.552786,244.818621 C52.255473,244.852571 45.034618,244.513833 42.411775,242.765271 C40.7499443,241.858818 39.963205,235.234888 40.0013203,228.748923 C40.0307763,223.7365 40.3491425,218.7982 42.411775,216.69665 Z M55.1782571,222.41032 L55.1782571,237.140877 L67.4090827,229.775598 L55.1782571,222.41032 Z" id="youtube"></path>
            </g>
        </g>
    </g>
</svg>